/* XPM */
static char *_fd95638ba7a4de0c1f13993a4d4e7187flPlA9tll8i9qhW[] = {
/* columns rows colors chars-per-pixel */
"64 64 56 1 ",
"  c #010102",
". c #000204",
"X c #000406",
"o c #040407",
"O c #090500",
"+ c #0D0800",
"@ c #01060A",
"# c #06070B",
"$ c #00070C",
"% c #020A0F",
"& c #130C00",
"* c #1C1201",
"= c #000B12",
"- c #030F16",
"; c #0A0B11",
": c #00101B",
"> c #0F1119",
", c gray7",
"< c gray8",
"1 c #121418",
"2 c #1B1B1B",
"3 c #1E1E1E",
"4 c #291A02",
"5 c #3C2604",
"6 c #051620",
"7 c #001827",
"8 c #161925",
"9 c #08202F",
"0 c #002339",
"q c #272727",
"w c gray16",
"e c #2C2C2C",
"r c #202535",
"t c gray24",
"y c #563706",
"u c #7C4F09",
"i c #0C2E44",
"p c #003352",
"a c #2E354C",
"s c #3A3E4A",
"d c #004976",
"f c gray25",
"g c gray34",
"h c gray36",
"j c #424C6E",
"k c #535A6B",
"l c gray49",
"z c #B2710D",
"x c #FFA214",
"c c #FFC825",
"v c #0069AA",
"b c #78819A",
"n c gray52",
"m c #98A0B5",
"M c #B4B4B4",
"N c white",
/* pixels */
"tttttttttttttttttttttttttttttttttttttttttttttttttttttttttttttttt",
"tNttttttttttttNttttttttttttttNttttttttttttttttNtttttttttttttttNt",
"ttqqqqqqqqqqqqqqqqqqqqqqqqqqqqqqqqqqqqqqqqqqqqqqqqqqqqqqqqqqqqtt",
"ttqMMMMMMMMMMMMMMMMMMMMMMMMMMMMMMMMMMMMMMMMMMMMMMMMMMMMMMMMMMqtt",
"ttqMjjjjjjjjjjjjjjjjjjjjjjjjjjjjjjjjjjjjjjjjjjjjjjjjjjjjjjjjMqtt",
"ttqMjjjjjjjjjjjjjjjjjjjjjjjjjjjjjjjjjjjjjjjjjjjjjjjjjjjjjjjjMqtt",
"ttqMjjjjjjjjjjjjjjjjjjjjjjjnnnnnnnnjjjjjjjjjjjjjjjjjjjjjjjjjMqtt",
"ttqMjjjjjjjjjjjNjjjjjjjjjjnnhffffnnnjjjjjjjjjjjjjjjjjjjjjjjjMqtt",
"ttqMjjjNjjjjjjjjjjjjjjjjjnfe<rrf33ennjjjjjjjjjjjjNjjjjjjjjjjMqtt",
"tNqMjjjjjjjjjjjjjjjjjjjjjn3eajjjjf3fnnjjjjjjjjjjjjjjjjjjjjjjMqtt",
"ttqMjjjjjjjjjjjjjjjjjjjjnfearrrrra83hnjjjjjjjjjjjjjjjjjjjjjjMqtt",
"ttqMjjjjjjjjjjjjjjjjjaarnfyzzzxxzzzyhnajjjjjjjjjjjjjjjjjjjjjMqNt",
"ttqMjjjjjjjjjjjjjjjjruzyffy5y44455zzfhuurjjjjjjjjjjjjjjjjjjjMqtt",
"ttqMjjjjjjjjjjjjjjjryxxzeeyyzzxxxxuuyeyy5jNjjjjjjjjjjjjjjjjjMqtt",
"ttqMjjjjjjjjjjjjjjjr8yyuzzzzzzzzzzzzzuy&8jjjjjjjNjjjjjjjjjjjMqtt",
"ttqMjjjjjjjjjjjjjjjjy4*+*455yyyyyyy4&+O&ujjjjjjjjjjjjjjjjNjjMqtt",
"ttqMjjjjjjjjjjjjjjjj554&*+4**.XX****45555jjjjjjjjjjjjjjjjjjjMqtt",
"ttqMjjjjjjjjjjjjjjjj5zuuyy*X.7776-y5yccuzjjjjjjjjjjjjjjjjjjjMqtt",
"tNqMjjjjjjjjjjjjjjjj5uxxxx97$o..$=@uxccuujjjjjbjjjjjjjjjjjjjMqtt",
"ttqMjjjjjjjjjjjjjjjjyuxxx90:>087:016xccyzjjjjjjjjjjjjjjjjjjjMqNt",
"ttqMjjjjjjNjjjjjjbjjyuxxz6=>87708>0ixccyzjjjbjjjjjjjjjjjjjjjMqtt",
"ttqMjNjjjjjjjjbjjjjjyuxx67;p0d0:70879ccyzjjjjjjjjjjjjjjjjjjjMqtt",
"ttqMjjjjjjjjjjjjjjjjyuxu-0pp07ppp7p76ccyzjjjjjjjjjjjjjjjjjjjMqtt",
"ttqMjjjjjjjjjjjjjjjjyuxzidd0=0pda>>06cc5zjjjjjjjjjjjjjjjjjjjMqtt",
"ttqMjjjjjjjjjjjjjjjjyux9dp077ddppa>d0cc5xajjjjjjjjjjjjjjNjjjMqtt",
"ttqMjjjjjjjjjjjjbjjjyzx6dppdpddppprp0ccyzajjjjjjjjjjjjjjjjjjMqtt",
"ttqMjjjjjjjjjjjjjjjjuzx6pp0dprpddddd06cyuajjjjjjjbjjjjjjjjjjMqtt",
"ttqMjjjjjjjjjjjjjjjjuzx670adppp00dddp%xyuajbjjjjbjjjjjjjjjjjMqtt",
"ttqMjjjjjjjjjjjjjjjmzy9prpddrddddppdd7iuzkjjjjjjjjjjjjjjjjjjMqtt",
"tNqMjjjjjjjjjjjjjjjazy90sdadpdddddppdd6uzajjjjjjjjjjjjjjjjjjMqNt",
"ttqMjjjjjjjjjjjjjjjazy90vdddpdddddddpdizzjjjjjNjjjjjjjjjjjjjMqtt",
"ttqMjjjjjjjjjjjjjjbazy6dppdddddddddddpixujjjjjjjjjjjjjjjjjjjMqtt",
"ttqMjjjjjjjjjjjjjjjazy9pddddpdddvvddddixyjjjjjjjjjjbjjjjjjjjMqtt",
"ttqMjjjjjjjjjjjjjjjazu9pdvvvdvvvvvvvdd9xujjjjjjjbjjjjjjjjjjjMqtt",
"ttqMjjNjjjjjjjjjjjjazz6ddvddvvvvvvvvvd9zzjjjjjjjjjjjjjjjjjjjMqtt",
"ttqMjjjjjjjjjjjjjjjazz6ddkvvvvvvvvvvvd9zxjjjjjjjjjjjjjjjjjjjMqtt",
"ttqMjjjjjjjjjbjjjjjazu9dvvvvvvvvvvvvvvixzjjjjjjjjjjjjjjjjjjjMqtt",
"ttqMjjjjjjjjjjjjjjjazuivvvvvvvvvvvvvvvixzjjjjjjjbjjjjjjjjjjjMqtt",
"ttqMjjjjjjjjjjjjjjjjzuivvvvvvvjvjvvvvvixxjjjbjjjjjjjjjjjjjjjMqNt",
"ttqMjjjjjjjjjjjjjjjjzyxivvvvvvvjvvvjvvixxjjjjjjjjjjjjjjjjjjjMqtt",
"ttqMjjjjjjjjjbjjjjjjzyzivvvvvvvvvvvjvvixxjjjjjjjjjjjjjjjjjjjMqtt",
"tNqMjjjjjjjjjjjjjjjjuuzivvvjvvvjvjvvvicxxbjjjjjjjjjjjjjjjjjjMqtt",
"ttqMjjjjjjjjjjjmjjjjuzzivvvvjvvvjvjjvicxxjjjjjjjjjjjjjjjjjjjMqtt",
"ttqMjjjjjjjjjjjjjjjjuzzxivvvvvvvvjjvvccxxjjjjjjjjjjjjjjjjjjjMqtt",
"ttqMjjjjjjjjjjjbjjjjuzxzivvvjvvvjvjvvccxxjjjjjbjjjjjjjjjjjjjMqtt",
"ttqMjjjjjjjjjjjjjjjjuzxz9vjvvvvvvjjvicccxjjjjjjjjjjjjjjjjjjjMqtt",
"ttqMjjjjNjjjjjjjjjjjyzxxzivvjvvvjjvizcccxjjjjjjjjjjjjjjjjjjjMqtt",
"ttqMjjjjjjjjjjjjjjjjyzxxz9jvvjvjvvviucccxjjjjjjjjjjjjjjjjjjjMqtt",
"ttqMjjjjjjjjjjjjjjjjzuxxxzijvvjjvj9uzcccxjjjjjjjjjjjjjjjjjjjMqNt",
"ttqMjjjjjjjjjjjjjjjjyyxxxxz9ivvv96uzxcxxzajjjjjjjjjjjjjjjjjjMqtt",
"ttqMjjjjjjjjjjjjjjjjy4xxxxxzz666zxxxxczuyjjjjjjjjjjjjjjjjjjjMqtt",
"ttqMjjjjjjjjjjjjjjjjy&uzzzzzxxxxxxxzuuy5yjjjjjjjjjjjjjjjjjjjMqtt",
"ttqMjjjjjjjjjjjjjjjjz4&yyuuuuuuuuuuuy545ujr888rjjjjjjjjNjjjjMqtt",
"tNqMjjjjjjjjjjjjjjjjaa5u5555yyy5555455urrr88aarrjjjjjjjjjjjjMqtt",
"ttqMjjjjjjjjjjjjjjjjNaaurrr88888888rrzraa8araaa8ajjjjjjjjjjjMqtt",
"ttqMjjjjjNjjjjjjjjjjjjaauuuuuuyyyyy5yr888l8aaaaarjajjjjjjjjjMqtt",
"ttqMjjjjjjjjjjjjjjjjjraaaaaaaaaaarraa>>8>aara88a8jajjjjNjjjjMqNt",
"ttqMjjjjjjjjjjjjjjjja8;>arrrrraarrrrr>>;;aarr8aa8jajjjjjjjjjMqtt",
"ttqMjjjjjjjjjjjjjjjjaar;#;>>r888>>>>>;o.>aar8rr8rajjjjjjjjjjMqtt",
"ttqMjjjjjjjjjjjjjjjjaroo;;#;;;##... . ;>>raaajaajjjjjjjjjjjjMqtt",
"ttqMMMMMMMMMMMMMMMMMllw3tggt,,ttggggtwgggMMMMMMMMMMMMMMMMMMMMqtt",
"ttqqqqqqqqqqqqqqqqqqqqqqq2,qqqqqqqqqqqqqqqqqqqqqqqqqqqqqqqqqqqtt",
"tNtttttttttNtttttttttttNttttttttttNtttttttttNtttttttttNtttttttNt",
"tttttttttttttttttttttttttttttttttttttttttttttttttttttttttttttttt"
};