/* XPM */
static char *f9e51636a83f4bd2ce54b2e0b6a5c3b9JCL3avRZCQh4nh7A[] = {
/* columns rows colors chars-per-pixel */
"64 64 234 2 ",
"   c #5E737F",
".  c #647D77",
"X  c #078606",
"o  c #098606",
"O  c #078906",
"+  c #0B8B06",
"@  c #078608",
"#  c #098609",
"$  c #0C8A09",
"%  c #118D06",
"&  c #138D09",
"*  c #1B8E0D",
"=  c #0C9305",
"-  c #0E9A04",
";  c #149206",
":  c #1B9506",
">  c #129C05",
",  c #1B9B06",
"<  c #149209",
"1  c #1A940A",
"2  c #1C9B09",
"3  c #148B12",
"4  c #1F911A",
"5  c #22950A",
"6  c #249B0B",
"7  c #279A0A",
"8  c #359F0C",
"9  c #299918",
"0  c #0FA105",
"q  c #13A304",
"w  c #1BA607",
"e  c #13AB04",
"r  c #15B304",
"t  c #1CB405",
"y  c #17BA06",
"u  c #1ABB06",
"i  c #1ABB09",
"p  c #1CA011",
"a  c #25A708",
"s  c #25A40B",
"d  c #2BA50C",
"f  c #2CAC0B",
"g  c #34A40D",
"h  c #3CA70C",
"j  c #33AD0C",
"k  c #3AAC0D",
"l  c #24BB06",
"z  c #2DBD07",
"x  c #28B408",
"c  c #24BC0A",
"v  c #2CBC0A",
"b  c #33B20D",
"n  c #3CB40C",
"m  c #34BD0A",
"M  c #3CBC0C",
"N  c #2DA718",
"B  c #37A712",
"V  c #27BC13",
"C  c #39B712",
"Z  c #289422",
"A  c #379B2E",
"S  c #36AF27",
"D  c #48AB0E",
"F  c #48B90D",
"G  c #57B70D",
"H  c #42AD13",
"J  c #45B212",
"K  c #4DB513",
"L  c #42BB11",
"P  c #48BD16",
"I  c #55B814",
"U  c #66BF0C",
"Y  c #64BF14",
"T  c #4CB22B",
"R  c #3CC207",
"E  c #34C10A",
"W  c #3BC20B",
"Q  c #37C113",
"!  c #3FC329",
"~  c #43C30E",
"^  c #4BC50E",
"/  c #47C90C",
"(  c #57C90B",
")  c #55C90D",
"_  c #45C311",
"`  c #4BC512",
"'  c #4DC813",
"]  c #4BC41B",
"[  c #53C513",
"{  c #54C912",
"}  c #5CCA14",
"|  c #52C61B",
" . c #5AC718",
".. c #65CD0C",
"X. c #76CA0D",
"o. c #65D00B",
"O. c #6DD10E",
"+. c #76D40D",
"@. c #64CC14",
"#. c #6BCD14",
"$. c #64C718",
"%. c #6BCD19",
"&. c #74CD12",
"*. c #72CE1B",
"=. c #6ED015",
"-. c #74D114",
";. c #7DD315",
":. c #75D11A",
">. c #7CD31D",
",. c #49C42C",
"<. c #56C627",
"1. c #4BC638",
"2. c #59C83A",
"3. c #68CB2A",
"4. c #76C926",
"5. c #7CD224",
"6. c #63C636",
"7. c #72CC3B",
"8. c #7DD334",
"9. c #729A58",
"0. c #59AE4D",
"q. c #6AB558",
"w. c #588B60",
"e. c #68876A",
"r. c #79CA47",
"t. c #7AD246",
"y. c #72CE52",
"u. c #75CD65",
"i. c #7ACB7D",
"p. c #8CBD37",
"a. c #87D80E",
"s. c #83D513",
"d. c #8DD413",
"f. c #8DDB14",
"g. c #83D51D",
"h. c #88D819",
"j. c #99DD17",
"k. c #A4DC1C",
"l. c #9CE20D",
"z. c #99E011",
"x. c #9DE11B",
"c. c #AAE70C",
"v. c #B1E90D",
"b. c #A7E315",
"n. c #94CA2A",
"m. c #84D522",
"M. c #8AD729",
"N. c #97DA29",
"B. c #89C832",
"V. c #92C431",
"C. c #89D636",
"Z. c #97DA36",
"A. c #9DE026",
"S. c #A2E12A",
"D. c #B8EA27",
"F. c #A7E136",
"G. c #B5E636",
"H. c #D2EE1A",
"J. c #EAF132",
"K. c #85B243",
"L. c #88D648",
"P. c #96DA43",
"I. c #85CE58",
"U. c #98DB57",
"Y. c #A6DE4B",
"T. c #A4DB57",
"R. c #A8E248",
"E. c #B8E747",
"W. c #A6E057",
"Q. c #B8E758",
"!. c #8AD667",
"~. c #95DA69",
"^. c #8ACF74",
"/. c #A7DE6B",
"(. c #A6DE79",
"). c #ADE163",
"_. c #B7E579",
"`. c #C5EC55",
"'. c #D0EE73",
"]. c #5E7280",
"[. c #617584",
"{. c #657A89",
"}. c #677D8B",
"|. c #6C8393",
" X c #728A9B",
".X c #768FA1",
"XX c #7B95A7",
"oX c #7CCE84",
"OX c #8AA8BD",
"+X c #8BD28D",
"@X c #9AD884",
"#X c #87D19A",
"$X c #A5DF87",
"%X c #A3DD99",
"&X c #B1E28C",
"*X c #8BD3A7",
"=X c #92D5B4",
"-X c #ACDFA5",
";X c #A9DEBB",
":X c #ACE1A9",
">X c #AEE1B5",
",X c #CDEC8E",
"<X c #DAF185",
"1X c #E0F497",
"2X c #C9E9AA",
"3X c #D3EEA4",
"4X c #E9F6B2",
"5X c #8DABC0",
"6X c #95B5CB",
"7X c #9BBDD4",
"8X c #9CD8C5",
"9X c #9FC1D9",
"0X c #A9DDC8",
"qX c #A2C7DA",
"wX c #A7DAD6",
"eX c #B1DEDD",
"rX c #B2E1CB",
"tX c #B1E1CF",
"yX c #A7CAE3",
"uX c #A9CDE6",
"iX c #ADDEE6",
"pX c #ADD2EC",
"aX c #B2DFED",
"sX c #B0D6F1",
"dX c #B4DBF5",
"fX c #B6DDF9",
"gX c #B6E1E5",
"hX c #B7E2EC",
"jX c #B7E1F4",
"kX c #BBE3FF",
"lX c #DCF1C9",
"zX c #EEF6D0",
"xX c #F5FAE8",
"cX c #FDFDFC",
/* pixels */
"kXkXkXkXkXkXkXkXkXkXkXkXkXkXkXkXkXkXkXkXkXkXkXkXkXkXkXkXkXkXkXkXkXkXkXkXkXkXkXkXkXkXkXkXkXkXkXkXkXkXkXkXkXkXkXkXkXkXkXkXkXkXkXkX",
"kXkXkXkXkXkXkXkXkXkXkXkXkXkXkXkXkXkXkXkXkXkXkXkXkXkXkXkXkXkXkXkXkXkXkXkXkXkXkXkXkXkXkXkXkXkXkXkXkXkXkXkXkXkXkXkXkXkXkXkXkXkXkXkX",
"kXkXkXkXkXkXkXkXkXkXkXkXkXkXkXkXkXkXkXkXkXkXkXkXkXkXkXkXkXkXkXkXkXkXkXkXkXkXkXkXkXkXjXiX8X=X*X#X*X8XdXkXkXkXkXkXkXkXkXkXkXkXkXkX",
"kXkXkXkXkXkXkXkXkXkXkXkXkXkXkXkXkXkXkXkXkXkXkXkXkXkXkXkXkXkXkXkXkXkXkXkXkXkXkXjXwXi.<.|  . .}  . .} <.#XjXkXkXkXkXkXkXkXkXkXkXkX",
"kXkXkXkXkXkXkXkXkXkXkXkXkXkXkXkXkXkXkXkXkXkXkXkXkXkXkXkXkXkXkXkXkXkXkXkXkXkXhX!. .%.M.>.:.>.g.g.M.m.>.$.y.iXkXkXkXkXkXkXkXkXkXkX",
"kXkXkXkXkXkXkXkXkXkXkXkXkXkXkXkXkXkXkXkXkXkXkXkXkXkXkXkXkXkXkXkXkXkXkXkXkXjXU.g.g.:.<._ ] @.*.).zXP.m.>.P.u.jXkXkXkXkXkXkXkXkXkX",
"kXkXkXkXkXkXkXkXkXkXkXkXkXkXkXkXkXkXkXkXkXkXkXkXkXkXkXkXkXkXkXkXkXkXkXkXkX(.m.m.3.I._ | t.[ /.xXzXZ.C.g.Z.3.#XkXkXkXkXkXkXkXkXkX",
"kXkXkXkXkXkXkXkXkXkXkXkXkXkXkXkXkXkXkXkXkXkXkXkXkXkXkXkXkXkXkXkXkXkXkXhX$Xj.g.Z.r._ ' ' [ 3.:.8.t.#.>.:._ %.<.iXkXkXkXkXkXkXkXkX",
"kXkXkXkXkXkXkXkXkXkXkXkXkXkXkXkXkXkXkXkXkXkXkXkXkXkXkXkXkXkXkXkXkXkX;X7.:.g.A.5.' ` W } M.Y.E.N.O.( ) W i ,.m oXkXkXkXkXkXkXkXkX",
"kXkXkXkXkXkXkXkXkXkXkXkXkXkXkXkXkXkXkXkXkXkXkXkXkXkXkXkXkXkXkXkXkX;X<.@.g.g.F.5.^ z W #.*.~ ,.| ' } @.z <.! i ] 8XkXkXkXkXkXkXkX",
"kXkXkXkXkXkXkXkXkXkXkXkXkXkXkXkXkXkXkXkXkXkXkXkXkXkXkXkXkXkXkXkXhXY.5.%.C.E.:.#.M w > w x v W ) ( [ @.c i Q 1.y.<.8XkXkXkXkXkXkX",
"kXkXkXkXkXkXkXkXkXkXkXkXkXkXkXkXkXkXkXkXkXkXkXkXkXkXkXkXkXkXkXkX;XN. .W R.'.L.v q o X < G : % 6 n ^ W z u V 2XlX` 2.8XkXkXkXkXkX",
"kXkXkXkXkXkXkXkXkXkXkXkXkXkXkXkXkXkXkXkXkXkXkXkXkXkXkXkXkXkXkXjXU.#.{ s.b.R.S - o # o 6 K 6 o X O t l v c y ,.!.| t.<.iXkXkXkXkX",
"kXkXkXkXkXkXkXkXkXkXkXkXkXkXkXkXkXkXkXkXkXkXkXkXkXkXkXkXkXkXkXrXm.g.<Xg.s.^ - @ X X 5 ;.D 5 6 o X = t j l E i c ` ' ` oXkXkXkXkX",
"kXkXkXkXkXkXkXkXkXkXkXkXkXkXkXkXkXkXkXkXkXkXkXkXkXkXkXkXkXkXkX(.g.c.;.g.j.5 X X + 0 O.l.s.X.b.X.% O r E g b c i E ' ' <.aXkXkXkX",
"kXkXkXkXkXkXkXkXkXkXkXkXkXkXkXkXkXkXkXkXkXkXkXkXkXkXkXkXkXkXhXM.f.l.@.j.Y # - = t M J ^ ^ M F U G ; r l r N y.i c ` | | #XkXkXkX",
"kXkXkXkXkXkXkXkXkXkXkXkXkXkXkXkXkXkXkXkXkXkXkXkXkXkXkXkXkXkX:Xg.f.+.#.j.6 = e t { ' ` ^ n } k O 6 6 = r z ` _ i l m (.C.y.kXkXkX",
"kXkXkXkXkXkXkXkXkXkXkXkXkXkXkXkXkXkXkXkXkXkXkXkXkXkXkXkXkXkX(.g.-.j.@.%.O 0 e m ' ' ' ' ' } ^ L $ 6 * - y z W E W m m.m.3.wXkXkX",
"kXkXkXkXkXkXkXkXkXkXkXkXkXkXkXkXkXkXkXkXkXkXkXkXkXkXkXkXkXkXW.g...{ ^ J % j [ ;.n ` ` b 2 : 2 k h < 8 s i u W ~ @.E :.M.M.(.kXkX",
"kXkXkXkXkXkXkXkXkXkXkXkXkXkXkXkXkXkXkXkXkXkXkXkXkXkXkXkXkXgXR.h.f.^ E 5 g ~ #.g.2 ^ O.X.h o = o 1 g G g i i E W %.W ' Z.G.L.jXkX",
"kXkXkXkXkXkXkXkXkXkXkXkXkXkXkXkXkXkXkXkXkXkXkXkXkXkXkXkXkX>Xm.h.-.^ v o G ) ..6 j ) ;.U 5 o O o X $ 5 Y i i u ~ } _ l >.k.8.hXkX",
"kXkXkXkXkXkXkXkXkXkXkXkXkXkXkXkXkXkXkXkXkXkXkXkXkXkXkXkXkX:Xg.g.-.^ > B X.-.F $ ^ $.+ X @ o o < # @ O B ' i u / ~ m i } F.P.gXkX",
"kXkXkXkXkXkXkXkXkXkXkXkXkXkXkXkXkXkXkXkXkXkXkXkXkXkXkXkXkX>Xg.h.} z ; J X.#.k 1 L $ @ @ # @ # b C < X d J r i l N 2X,.@.g.*.eXkX",
"kXkXkXkXkXkXkXkXkXkXkXkXkXkXkXkXkXkXkXkXkXkXkXkXkXkXkXkXkX%Xg.s.@.t - a H s.6 j d o # # # # # < P x O I #.w i y T 2XV >.g.=.;XkX",
"kXkXkXkXkXkXkXkXkXkXkXkXkXkXkXkXkXkXkXkXkXkXkXkXkXkXkXkXkX(.Z.&.@.t > q , @.+ [ J o # # # # # @ k m - O d L y y _.^.m g.g.#.0XkX",
"kXkXkXkXkXkXkXkXkXkXkXkXkXkXkXkXkXkXkXkXkXkXkXkXkXkXkXkXjX).,X*.) r > q s F ; [ g ; d 1 o # # # % m r - s J t y O.M ~ M.>.[ wXkX",
"kXkXkXkXkXkXkXkXkXkXkXkXkXkXkXkXkXkXkXkXkXkXkXkXkXkXkXkXhXC.g.N.4.> r = s n s ~ s m ` b o # @ O 1 f y r f d s y R u } 4XZ.-.0XkX",
"kXkXkXkXkXkXkXkXkXkXkXkXkXkXkXkXkXkXkXkXkXkXkXkXkXkXkXkXeXm.F.h.T.$ r $ s g j n q f w - $ X & 1 & J i y s & $ r x W s.&Xm.:.-XkX",
"kXkXkXkXkXkXkXkXkXkXkXkXkXkXkXkXkXkXkXkXkXkXkXkXkXkXkXkXrXF.Z.>.&.q r - d K F J q + = X q s % D # K c i q < # q n [ R.#.:.#.%XkX",
"kXkXkXkXkXkXkXkXkXkXkXkXkXkXkXkXkXkXkXkXkXkXkXkXkXkXkXkXtXS.g.@.;.l r o k $.:.K + - O + K x + D + B ~ i q # @ - G X.j.c.h.@./.kX",
"kXkXkXkXkXkXkXkXkXkXkXkXkXkXkXkXkXkXkXkXkXkXkXkXkXkXkXkXtXf.P.3.>.x e % n } b.I 6 b , F g.M , K & g _ y F O # # D a.l.v.c.O.L.kX",
"kXkXkXkXkXkXkXkXkXkXkXkXkXkXkXkXkXkXkXkXkXkXkXkXkXkXkXkX:Xj.x.:.#.L t P [ t.Y.L.g #.s s K ~ ` d.5 1 E y K 2 # # * Y.E.D.v.+.L.kX",
"kXkXkXkXkXkXkXkXkXkXkXkXkXkXkXkXkXkXkXkXkXkXkXkXkXkXkXkX$Xk.H.j.O. .l %.^ ,.<X)., M 6 - s W @.O.5 & z y J d # # # r.b.v.v.+.^.kX",
"kXkXkXkXkXkXkXkXkXkXkXkXkXkXkXkXkXkXkXkXkXkXkXkXkXkXkXkX$Xj.J.F...` b } m v &XZ.j - - = t M ^ ' < $ v i t 2 # # # B c.v.D.8.+XkX",
"kXkXkXkXkXkXkXkXkXkXkXkXkXkXkXkXkXkXkXkXkXkXkXkXkXkXkXkX@XR.J.j.a.z 2 n ^ m C (.<.s ; f M : ~ ^ & & c i i - # # Z T D.v.x.$.%XkX",
"kXkXkXkXkXkXkXkXkXkXkXkXkXkXkXkXkXkXkXkXkXkXkXkXkXkXkXkX@XM.b. .P.z - 1 I r e T ,Xt.` ` a M m O.& $ c i i - # @ 3 I.4XD.z.O.#XkX",
"kXkXkXkXkXkXkXkXkXkXkXkXkXkXkXkXkXkXkXkXkXkXkXkXkXkXkXkX(.s.R.) ^ @.q $ K q e b *.3.' ' { { ) U # & v y y = # 3 A xX4X'.f.+.0XkX",
"kXkXkXkXkXkXkXkXkXkXkXkXkXkXkXkXkXkXkXkXkXkXkXkXkXkXkXkX>Xj.Q.Q.) s.L O g 2 O > M ( O.O.O.o.l.8 X f v 0 e # # 4 A u.G.v.j.%.gXkX",
"kXkXkXkXkXkXkXkXkXkXkXkXkXkXkXkXkXkXkXkXkXkXkXkXkXkXkXkXhXC.g.<XZ.:.} ; $ J O X O 6 a.) ..l.X.+ < ' v = > & # @ = ^ j.G.f.C.jXkX",
"kXkXkXkXkXkXkXkXkXkXkXkXkXkXkXkXkXkXkXkXkXkXkXkXkXkXkXkXjXU.g.Z.1Xg.@.f X g H + b ` T.<X'.s.1 X d ' l O d 1 3 0.# 6.j.v.;.r.jXkX",
"kXkXkXkXkXkXkXkXkXkXkXkXkXkXkXkXkXkXkXkXkXkXkXkXkXkXkXkXkX$Xg.h.`.C.[ b < 2 L n j ` &XlX!.s X ; ` %.s O C # 3 q.< 7.f.v.a.I.kXkX",
"kXkXkXkXkXkXkXkXkXkXkXkXkXkXkXkXkXkXkXkXkXkXkXkXkXkXkXkXkX0Xm.R.@.$.~ L $ s ` ' ' ' <.P 1 + w M %.>.k 2 L # # # q } h.c.s.@XkXkX",
"kXkXkXkXkXkXkXkXkXkXkXkXkXkXkXkXkXkXkXkXkXkXkXkXkXkXkXkXkXjXC.m.:.m f ` O O s _ ` ' ` b n M M >.g.%._ M J # # # w :.f.c.+.-XkXkX",
"kXkXkXkXkXkXkXkXkXkXkXkXkXkXkXkXkXkXkXkXkXkXkXkXkXkXkXkXkXkX@Xg.g.M & L < X O g j : $ , 6 B *.g.>.' ' j B # $ 9 j h.E.`.} 0XkXkX",
"kXkXkXkXkXkXkXkXkXkXkXkXkXkXkXkXkXkXkXkXkXkXkXkXkXkXkXkXkXkXrXM.>.3.0.w f 2 O J $.$.6.$.$.H h *.{ ' 2.K & # 0 - ) G.1XQ.3.aXkXkX",
"kXkXkXkXkXkXkXkXkXkXkXkXkXkXkXkXkXkXkXkXkXkXkXkXkXkXkXkXkXkXjXL.%.t.q.O $ f b 2 % % ; 6 % +  .` ' ` 6 K # $ e M f.c.f.} u.kXkXkX",
"kXkXkXkXkXkXkXkXkXkXkXkXkXkXkXkXkXkXkXkXkXkXkXkXkXkXkXkXkXkXkX0X| [ d X = + < f L f < % 6 b f C L j g 8 o A ~._.h.#.' [ ;XkXkXkX",
"kXkXkXkXkXkXkXkXkXkXkXkXkXkXkXkXkXkXkXkXkXkXkXkXkXkXkXkXkXkXkXkX+X:.>.K 9 p - O 6 r.| M s + $ 9 b Z # 9 T <.m.M.m.U.| ^.kXkXkXkX",
"kXkXkXkXkXkXkXkXkXkXkXkXkXkXkXkXkXkXkXkXkXkXkXkXkXkXkXkXkXkXkXfXqX6.m.5.9 $ - r b N 2 + O 0 w b $ Z O 4.3X).m.m.5.~.u.jXkXkXkXkX",
"kXkXkXkXkXkXkXkXkXkXkXkXkXkXkXkXkXkXkXkXkXkXkXkXkXkXkXkXsXyX6XXX}.w.*.>.I 6 A S e r r A 0 T @X& X T ^.' M.M.m.:._ 1.iXkXkXkXkXkX",
"kXkXkXkXkXkXkXkXkXkXkXkXkXkXkXkXkXkXkXkXkXkXkXkXkXkXyXXX}.[.].].].  I h.h.6 Z 3 @ + - ^.A o # 0.0.6.C ~ @.g.M.} m *XkXkXkXkXkXkX",
"kXkXkXkXkXkXkXkXkXkXkXkXkXkXkXkXkXkXkXkXkXkXkXkXkX7X}.].].].].].].].w.*.#.h.7.< 5 - - ; & O d <.~.$Xc v W { @.m <.aXkXkXkXkXkXkX",
"kXkXkXkXkXkXkXkXkXkXkXkXkXkXkXkXkXkXkXkXkXkXkXkXsX|.].].].].].].].].].9.f.=.>.4.Z.4.3.L 2 C y.6.| ] i V m ` m / I.fXkXkXkXkXkXkX",
"kXkXkXkXkXkXkXkXkXkXkXkXkXkXkXkXkXkXkXkXkXkXkXkXpX{.].].].].].].  ].].e.j.).3XlXxXxX3Xy.] ~.6.t.` m V 1.E l ) V.[.5XkXkXkXkXkXkX",
"kXkXkXkXkXkXkXkXkXkXkXkXkXkXkXkXkXkXkXkXkXkXkXkXyX[.].].].].].].    ].  K._.cXcXcXxXU.8.Q 2.] <._ u y W h.s.K.. ].|.yXkXkXkXkXkX",
"kXkXkXkXkXkXkXkXkXkXkXkXkXkXkXkXkXkXkXkXkXkXkXkXpX{.].].].].].].].].].].. n.Q.,X&XC.t.5.:.~ l z z 2.) f.p.e.].].].]. XdXkXkXkXkX",
"kXkXkXkXkXkXkXkXkXkXkXkXkXkXkXkXkXkXkXkXkXkXkXkXdX X].].].].].].].].].  ].. n.c.z.a.f.z.z.f.o.O.+.z.B.e.  ].].].].].{.pXkXkXkXkX",
"kXkXkXkXkXkXkXkXkXkXkXkXkXkXkXkXkXkXkXkXkXkXkXkXkXuXXX[.].].].].].].].].].].  9.K.p.V.V.n.N.k.k.V.9.  ].].].].].].].{.pXkXkXkXkX",
"kXkXkXkXkXkXkXkXkXkXkXkXkXkXkXkXkXkXkXkXkXkXkXkXkXkXfX6X X[.].].].].].].].].].].].].].].].].    ].].].].].].].].].].|.dXkXkXkXkX",
"kXkXkXkXkXkXkXkXkXkXkXkXkXkXkXkXkXkXkXkXkXkXkXkXkXkXkXkXsX6XXX}.[.].].].].].].].].].].].].].].].].].].].].].].].{..X7XkXkXkXkXkX",
"kXkXkXkXkXkXkXkXkXkXkXkXkXkXkXkXkXkXkXkXkXkXkXkXkXkXkXkXkXkXjXpX6X.X{.].].].].].].].].].].].].].].].].].].].[.XXyXfXkXkXkXkXkXkX",
"kXkXkXkXkXkXkXkXkXkXkXkXkXkXkXkXkXkXkXkXkXkXkXkXkXkXkXkXkXkXkXkXkXjXuXOX X}.{.[.[.[.[.[.[.[.[.[.[.{.|. XXXOX9XfXkXkXkXkXkXkXkXkX",
"kXkXkXkXkXkXkXkXkXkXkXkXkXkXkXkXkXkXkXkXkXkXkXkXkXkXkXkXkXkXkXkXkXkXkXkXfXpXyXqX9X9X9X7X7X7X7X7XqXuXsXfXkXkXkXkXkXkXkXkXkXkXkXkX",
"kXkXkXkXkXkXkXkXkXkXkXkXkXkXkXkXkXkXkXkXkXkXkXkXkXkXkXkXkXkXkXkXkXkXkXkXkXkXkXkXkXkXkXkXkXkXkXkXkXkXkXkXkXkXkXkXkXkXkXkXkXkXkXkX"
};
