/* XPM */
static char *f9cb9e7eff364645aa5e918083ad7d25qxQ1LrjOzLu7D78y[] = {
/* columns rows colors chars-per-pixel */
"64 64 6 1 ",
"  c black",
". c #343434",
"X c #555555",
"o c #CECECE",
"O c #FFF4F4",
"+ c white",
/* pixels */
" XXXXXXXXXXXXXXXXXXXXXXXXXXXXXXX XXXXXXXX.........XXXXXXXXXXXXX ",
"X+++++++++++++++++++++++++++++++++++++++++.......++++++++++++++X",
"X+ooooooooooooooooooooooooooooooooooooooooo......ooooooooooooo+X",
"X+oo ooooooooooooooooooooooooooo ooooooooooo....ooooooooooo oo+X",
"X+o XXXXXXXXXXXXXXXXXXXXXXXXXXXXXXXXXXXXXXXX....XXXXXXXXXXXX o+X",
"X+ooX oooooooooooooooooooooooooo oooooooooooo...oooooooooo Xoo+X",
"X+ooXoooooooooooooooooooooooooooooooooooooooo...oooooooooooXoo+X",
"X+ooXoo++++++++++++++++++++++++++++++++++++++...+++++++++ooXoo+X",
"X+ooXoo+XXXXXXXXXXXXXXXXXXXXXXXXXXXXXXXXXXXXXX..XXXXXXXX+ooXoo+X",
"X+ooXoo+Xooooooooooooooooooooooooooooooooooooo..oooooooX+ooXoo+X",
"X+ooXoo+Xoooooooooooooooooooooooooooooooooooo..ooooooooX+ooXoo+X",
"X+ooXoo+Xoooooooooooooooooooooooooooooooooooo..ooooooooX+ooXoo+X",
"X+ooXoo+Xoooooooooooooooooooooooooooooooooooo.oooooooooX+ooXoo+X",
"X+ooXoo+XooooOooOooOoooooooooooooooooooooooo..ooOooOoooX+ooXoo+X",
"X+ooXoo+Xoooooo X oooooooooooooooooooooooooo... X oooooX+ooXoo+X",
"X+ooXoo+Xooooo o+o ooooooooooooooooooooooooo...o+o ooooX+ooXoo+X",
" +o X o+XooooOX+ +XOooooooooooooooooooooooo...X+ +XOoooX+o X o+ ",
"X+ooXoo+Xooooo o+o oooooooooooooooooooooooo..o o+o ooooX+ooXoo+X",
"X+ooXoo+Xoooooo X ooooooooooooooooooooooooo..oo X oooooX+ooXoo+X",
"X+ooXoo+XooooOooOooOooooooooooooooooooooooo..OooOooOoooX+ooXoo+X",
"X+ooXoo+Xooooooooooooooooooooooooooooooooo..oooooooooooX+ooXoo+X",
"X+ooXoo+Xoooooooooooooooooooooooooooooooooo..ooooooooooX+ooXoo+X",
"X+ooXoo+Xoooooooooooooooooooooooooooooooooo..ooooooooooX+ooXoo+X",
"X+ooXoo+Xooooooooooooooooooooooooooooooooooo.ooooooooooX+ooXoo+X",
"X+ooXoo+Xoooooooooooooooooooooooooooooooooo..ooooooooooX+ooXoo+X",
"X+ooXoo+Xoooooooooooooooooooooooooooooooooo..ooooooooooX+ooXoo+X",
"X+ooXoo+Xoooooooooooooooooooooooooooooooooo..ooooooooooX+ooXoo+X",
"..ooXoo+Xoooooooooooooooooooooooooooooooooo..ooooooooooX+ooXoo+X",
"...oXoo+Xooooooooooooooooooooooooooooooooooo.ooooooooooX+ooXoo+X",
"...oXoo+Xooooooooooooooooooooooooooooooooooo..oooooooooX+ooXoo+X",
".......+Xoooooooooooooooooooooooooooooooooooo.oooooooooX+o X o+ ",
"........XooooooooooooooooooooooooooooooooooooooooooooooX+ooXoo+X",
"........XooooooooooooooooooooooooooooooooooooooooooooooX+ooXoo+X",
"........XooooooooooooooooooooooooooooooooooooooooooooooX+ooXoo+X",
"....Xo........oooo..oooooooooooooooooooooooooooooooooooX+ooXoo+X",
"...oXo.................ooooooooooooooooooooooooooooooooX+ooXoo+X",
".+ooXoo+X.ooo...........oooooooooooooooooooo.ooooooooooX+ooXoo+X",
"X+ooXoo+Xooooo.ooooooo....oooooooooooooooo..oooooooooooX+ooXoo+X",
"X+ooXoo+Xoooooooooooooo....ooooooooooooooo.ooooooooooooX+ooXoo+X",
"X+ooXoo+Xoooooooooooooooo...ooooooooooooo.oooooooooooooX+ooXoo+X",
"X+ooXoo+Xooooooooooooooooo..oooooooooooo..oooooooooooooX+ooXoo+X",
"X+ooXoo+Xooooooooooooooooooo.oooooooooo..ooooooooooooooX+ooXoo+X",
"X+ooXoo+Xooooooooooooooooooooooooooooo...ooooooooooooooX+ooXoo+X",
"X+ooXoo+Xoooooooooooooooooooooooooooo...oooooooooooooooX+ooXoo+X",
"X+ooXoo+Xoooooooooooooooooooooooooooo..ooooooooooooooooX+ooXoo+X",
"X+ooXoo+Xoooooooooooooooooooooooooooo..ooooooooooooooooX+ooXoo+X",
"X+ooXoo+Xooooooooooooooooooooooooooo...ooooooooooooooooX+ooXoo+X",
"X+ooXoo+XoooOooOooOooooooooooooooooo...oooooooOooOooOooX+ooXoo+X",
"X+ooXoo+Xooooo X ooooooooooooooooooo..oooooooooo X ooooX+ooXoo+X",
"X+ooXoo+Xoooo o+o oooooooooooooooo...oooooooooo o+o oooX+ooXoo+X",
"X+ooXoo+XoooOX+ +XOooooooooooooo.....oooooooooOX+ +XOooX+o X o+ ",
" +o X o+Xoooo o+o oooooooooooo.......oooooooooo o+o oooX+ooXoo+X",
"X+ooXoo+Xooooo X oooooooooooo....ooooooooooooooo X ooooX+ooXoo+X",
"X+ooXoo+XoooOooOooOoooooooooo...ooooooooooooooOooOooOooX+ooXoo+X",
"X+ooXoo+Xooooooooooooooooooo...ooooooooooooooooooooooooX+ooXoo+X",
"X+ooXoo+XXXXXXXXXXXXXXXXXXX...XXXXXXXXXXXXXXXXXXXXXXXXXX+ooXoo+X",
"X+ooXoo++++++++++++++++++++....++++++++++++++++++++++++++ooXoo+X",
"X+ooXooooooooooooooooooooo....oooooooooooooooooooooooooooooXoo+X",
"X+ooX oooooooooooooooooooo....oo ooooooooooooooooooooooooo Xoo+X",
"X+o XXXXXXXXXXXXXXXXXXXX......XXXXXXXXXXXXXXXXXXXXXXXXXXXXXX o+X",
"X+oo oooooooooooooooooo.......oo oooooooooooooooooooooooooo oo+X",
"X+oooooooooooooooooooo........oooooooooooooooooooooooooooooooo+X",
"X++++++++++++++++++...........+++++++++++++++++++++++++++++++++X",
" XXXXXXXXXXXXXXXXXX...........XX XXXXXXXXXXXXXXXXXXXXXXXXXXXXXX "
};