/* XPM */
static char *_37ea3baf3b3462fa57b7cd89aa6de515DFcxLphcinNkXKg[] = {
/* columns rows colors chars-per-pixel */
"64 64 8 1 ",
"  c #272727",
". c gray24",
"X c #424C6E",
"o c #78819A",
"O c #98A0B5",
"+ c #B4B4B4",
"@ c #C7CFDD",
"# c white",
/* pixels */
"................................................................",
".#............#..............#................#...............#.",
"..                                                            ..",
".. ++++++++++++++++++++++++++++++++++++++++++++++++++++++++++ ..",
".. +XXXXXXXXXXXXXXXXXXXXXXXXXXXXXXXXXXXXXXXXXXXXXXXXXXXXXXXX+ ..",
".. +XXXXXXXXXXXXXXXXXXXXXXXXXXXXXXXXXXXXXXXXXXXXXXXXXXXXXXXX+ ..",
".. +XXXXXXXXXXXXXXXXXXXXXXXXXXXX#XXXXXXXXXXXXXXXXXXXXXXXXXXX+ ..",
".. +XXXXXXXXXXX#XXXXXXXXXXXXXXXXXXXXXXXXXXXXXXXXXXXXXXXXXXXX+ ..",
".. +XXX#XXXXXXXXXXXXXXXXXXXXXXXXXXXXXXXXXXXXXXXXX#XXXXXXXXXX+ ..",
".# +XXXXXXXXXXXXXXXXXXXXXXXXXXXXXXXXXXXXXXXXXXXXXXXXXXXXXXXX+ ..",
".. +XXXXXXXXXXXXXXXXXXXXXXXXXXXXXXXXXXXXXXXXXXXXXXXXXXXXXXXX+ ..",
".. +XXXXXXXXXXXXXXXXXXXXoXXXXXXXX#XXXXXXXXXXXXXXXXXXXXXXXXXX+ #.",
".. +XXXXXXXXXXXXXXXXXXXXXXXXXXXXXXXXXXXXXXXXXXXXXXXXXXXXXXXX+ ..",
".. +XXXXXXXXXXXXXXXXXXXXXXXoXXXXXXXXXXXXXX#XXXXXXXXXXXXXXXXX+ ..",
".. +XXXXXXXXXXXXXXXXXXXXXXXXXXXXXXXXXXXXXXXXXXXX#XXXXXXXXXXX+ ..",
".. +XXXXXXXXXXXXXXXXXXoXXXXXXXXXXXXXXXXXXXXXXXXXXXXXXXXXX#XX+ ..",
".. +XXXXXXXXXXXXXXXXXXXoXXXXXXXXXXXXXXXXXXXXXXXXXXXXXXXXXXXX+ ..",
".. +XXXXXXXXXXXXXXXXXXXXXXXXXXXXoXXXXXXXXXXXXXXXXXXXXXXXXXXX+ ..",
".# +XXXXXXXXXXXXXXXXXXXXXXXXXXXXXXXXXXXXXXXXXXoXXXXXXXXXXXXX+ ..",
".. +XXXXXXXXXXXXXXXXXXXXoXXXXXXXXooXXXXXXXXXXXXXXXXXXXXXXXXX+ #.",
".. +XXXXXX#XXXXXXoXXXXXXXXXXXXXXXXXXXXXXXXXXoXXXXXXXXXXXXXXX+ ..",
".. +X#XXXXXXXXoXXXXXXXXXXXXXXXXXXXXXXoXXXXXXXXXXXXXXXXXXXXXX+ ..",
".. +XXXXXXXXXXXXXXXXXXXXXXXXXXXXXXXXXXoXXXXXXXXXXXXXXXXXXXXX+ ..",
".. +XXXXXXXXXXXXXXXXXXXXXXXXXXXXXXXXXoXXXXXXXXXXXXXXXXXXXXXX+ ..",
".. +XXXXXXXXXXXXXXXXXXXXXXXX@XXXXXXXXXXoXXXXXXXXXXXXXXXX#XXX+ ..",
".. +XXXXXXXXXXXXoXXXXXXXXXXXXXXXXXXoXXXXXXXXXXXXXXXXXXXXXXXX+ ..",
".. +XXXXXXXXXXXXXXXXXXXXXXXXXXXoXXXXXXXXoXXXXXXXXoXXXXXXXXXX+ ..",
".. +XXXXXXXXXXXXXXXXXXXXoXXXXXXXoXXXXXXXXXXoXXXXoXXXXXXXXXXX+ ..",
".. +XXXXXXXXXXXXXXXOXXXXXXXXXXXXXXXXXXXXXoXXXXXXXXXXXXXXXXXX+ ..",
".# +XXXXXXXXXXXXXXXXXXXXoXXXXXXXXXXXoXXXXXXXXXXXXXXXXXXXXXXX+ #.",
".. +XXXXXXXXXXXXXXXXXXXXXXXXXXXXXXXoXoXXXXXXXX#XXXXXXXXXXXXX+ ..",
".. +XXXXXXXXXXXXXXoXXXXoXXoXXX#XXXXXXXXXXXXXXXXXXXXXXXXXXXXX+ ..",
".. +XXXXXXXXXXXXXXXXXXXXXXXXXXXXXXXXXXXXXXXXXXXXXXXoXXXXXXXX+ ..",
".. +XXXXXXXXXXXXXXXXXXXXXXXXXXXXXXXXoXXXoXXXXXXXoXXXXXXXXXXX+ ..",
".. +XX#XXXXXXXXXXXXXXXXXXXXXXXXXXXXXXXXXXXXXXXXXXXXXXXXXXXXX+ ..",
".. +XXXXXXXXXXXXXXXXXXXXXoXXXXXXXXXXXXXXXXXXXXXXXXXXXXXXXXXX+ ..",
".. +XXXXXXXXXoXXXXXXXXoXXXXXoXXoXXXXXXXXXXXXXXXXXXXXXXXXXXXX+ ..",
".. +XXXXXXXXXXXXXXXXXXXXXXXXXXXXo#XXXXXXXXXXXXXXoXXXXXXXXXXX+ ..",
".. +XXXXXXXXXXXXXXXXXXXXXXXXXXXXXXXXXXXXXXXXoXXXXXXXXXXXXXXX+ #.",
".. +XXXXXXXXXXXXXXXXXXXXXXXXXXXXXXXXXXXXXXXXXXXXXXXXXXXXXXXX+ ..",
".. +XXXXXXXXXoXXXXXXXXXXXXXXXooXXXXXXXXXXXXXXXXXXXXXXXXXXXXX+ ..",
".# +XXXXXXXXXXXXXXXXXXXXXXXXXXXXXXXXXXXXooXXXXXXXXXXXXXXXXXX+ ..",
".. +XXXXXXXXXXXOXXXXXXXXXXXXXXXXXXXXXXXXXXXXXXXXXXXXXXXXXXXX+ ..",
".. +XXXXXXXXXXXXXXXXXXXXXoXXXXXXXXXXoXXXXXXXXXXXXXXXXXXXXXXX+ ..",
".. +XXXXXXXXXXXoXXXXXXXXXXXXXXXXXXXXXXXXXXXXXXoXXXXXXXXXXXXX+ ..",
".. +XXXXXXXXXXXXXXXXXXXXXXXoXXXXXXXoXXXXoXXXXXXXXXXXXXXXXXXX+ ..",
".. +XXXX#XXXXXXXXXXXXXoXXXXXXXXXXXXXXXXXXXXXXXXXXXXXXXXXXXXX+ ..",
".. +XXXXXXXXXXXXXXXXXXoXXXXXXXXXooXXXXXXXXXXXXXXXXXXXXXXXXXX+ ..",
".. +XXXXXXXXXXXXXXXXXXXXoXXXXXXXXXXXXXXXXXXXXXXXXXXXXXXXXXXX+ #.",
".. +XXXXXXXXXXXXXXXXXXXXXoXXXXXXXXXXXXXXXXXXXXXXXXXXXXXXXXXX+ ..",
".. +XXXXXXXXXXXXXXXXXXoXXXXoXXXoXXXXXXXXXXXXXXXXXXXXXXXXXXXX+ ..",
".. +XXXXXXXXXXXXXXXXXXXXXXXXXXXXXXXXXXXXXXXXXXXXXXXXXXXXXXXX+ ..",
".. +XXXXXXXXXXXXXXXXXXXXXXXXXXXXXXXXXXXXXXXXXXXXXXXXXXX#XXXX+ ..",
".# +XXXXXXXXXXXXXXXXXXXXXXXXXXXXXXXXXXXXXXXXXXXXXXXXXXXXXXXX+ ..",
".. +XXXXXXXXXXXXXXXX#XXXXXXXXXXXXXXXXXXXXXXXXXXXXXXXXXXXXXXX+ ..",
".. +XXXXX#XXXXXXXXXXXXXXXXXXXXXXXXXXXXXXX#XXXXXXXXXXXXXXXXXX+ ..",
".. +XXXXXXXXXXXXXXXXXXXXXXXXXXXXXXXXXXXXXXXXXXXXXXXXXXX#XXXX+ #.",
".. +XXXXXXXXXXXXXXXXXXXXXXXXXXXXXXXXXXXXXXXXXXXXXXXXXXXXXXXX+ ..",
".. +XXXXXXXXXXXXXXXXXXXXXXXXXXXXXXXXXXXXXXXXXXXXXXXXXXXXXXXX+ ..",
".. +XXXXXXXXXXXXXXXXXXXXXXXXXXXXXXXXXXXXXXXXXXXXXXXXXXXXXXXX+ ..",
".. ++++++++++++++++++++++++++++++++++++++++++++++++++++++++++ ..",
"..                                                            ..",
".#.........#...........#..........#.........#.........#.......#.",
"................................................................"
};