/* XPM */
static char *_91f10e8d6704fe1a6793705c627d3092eACNsYekOBFL2ef[] = {
/* columns rows colors chars-per-pixel */
"64 64 43 1 ",
"  c #000002",
". c #030404",
"X c #060606",
"o c #06070B",
"O c gray5",
"+ c #090412",
"@ c #0A0B11",
"# c #0E071B",
"$ c #0F1010",
"% c #0F1119",
"& c #131313",
"* c #121418",
"= c gray11",
"- c #3C1200",
"; c #161925",
": c #272727",
"> c gray16",
", c #2D2D2D",
"< c #202535",
"1 c #282B33",
"2 c gray24",
"3 c #561A00",
"4 c #7C2600",
"5 c #2E354C",
"6 c #3A3E4A",
"7 c #414141",
"8 c #565656",
"9 c #5A5A5A",
"0 c #5D5D5D",
"q c #424C6E",
"w c #535A6B",
"e c #7C7C7C",
"r c #B23700",
"t c #FF5000",
"y c #78819A",
"u c #8B8B8B",
"i c #98A0B5",
"p c #AEAEAE",
"a c #B2B2B2",
"s c #B4B4B4",
"d c #C6C6C6",
"f c gray89",
"g c white",
/* pixels */
"2222222222222222222222222222222222222222222222222222222222222222",
"2g222222222222g2222222222ggggggg22222222222222g222222222222222g2",
"22::::::::::::::::::::ggg:::::::ggg:::::::::::::::::::::::::::22",
"22:ssssssssssssssssssgsssssssssssssgsssssssssssssssssssssssss:22",
"22:sqqqqqqqqqqqqqqqqgggggggggggggggggqqqqqqqqqqqqqqqqqqqqqqqs:22",
"22:sqqqqqqqqqqqqqqqggggggggggggaaaaaaaqqqqqqqqqqqqqqqqqqqqqqs:22",
"22:sqqqqqqqqqqqqqqggggggggaaeaaeaO&&&&&qqqqqqqqqqqqqqqqqqqqqs:22",
"22:sqqqqqqqqqqqgqgagggggaaaaO&u9u9u9fd9&qqqqqqqqqqqqqqqqqqqqs:22",
"22:sqqqgqqqqqqqqaeggggaaO&&u9pdu9&u&pdfu&qqqqqqqqgqqqqqqqqqqs:22",
"2g:sqqqqqqqqqqqqaagggga&&&u9&&&999&99u99&qqqqqqqqqqqqqqqqqqqs:22",
"22:sqqqqqqqqqqqq8ggggga&&&&&&&&&&&&&9uup&qqqqqqqqqqqqqqqqqqqs:22",
"22:sqqqqqqqqqq5a8ggggga&&&&&&&&&&&&&&&9u&&qqqqqqqqqqqqqqqqqqs:g2",
"22:sqqqqqqqqqq58aggggga&&&&&&&&&&&&&&&&&u&qqqqqqqqqqqqqqqqqqs:22",
"22:sqqqqqqqqqq5eeggggga&&&&&&&&&&&&&&&&&&&gqqqqqqqqqqqqqqqqqs:22",
"22:sqqqqgggggq<e2agggga&&&&&&&&&&&&&&&&&&aqqqqqqgqqqqqqqqqqqs:22",
"22:sqqgggggggg<a2eggggwa&&&&&&&&&&&&&&&OOeqqqqqqqqqqqqqqqgqqs:22",
"22:s5aaaaa2aaa=2aagggggaeaO&&&&&&&&&&OOaaaqqqqqqqqqqqqqqqqqqs:22",
"22:s5ggae888eae&aeagggggaaaaa&&&&&&&Oaaa5gqqqqqqqqqqqqqqqqqqs:22",
"2g:s5gaaaaaaaagO2eeggggggaaaeeeeaaaeaaaggqqqqqyqqqqqqqqqqqqqs:22",
"22:s;aagggggggg>>gaeaaggyggaaaaaawwaagge8qqqqqqqqqqqqqqqqqqqs:g2",
"22:s5aaaaggggg+@ .aaaaaaaggggggggggggge28qqqyqqqttttttttqqqqs:22",
"22:sqaaaaaaaaaw+e==eegge8aaagagggaaae1=&=5qqqqqqtqqqqqqtqqqqs:22",
"22:s5<agggaaagg#g522>eageeaaaaaaeeaaaOOoeqqqrttrt3-3333ttrtqs:22",
"22:sq5aaagggggg#eggae>>8agaaaaeeee2>X=%qgqqttttttttttttttttqs:22",
"22:sq<aaeeaggga#a8gggea8222O$&>=&O==a<sygqrtrtttttr4r4434rtts:22",
"22:sq5aagaeeeee#0egggggggggae8eeee8eesssgqtttt444t3333333343e:22",
"22:sqqagaggagaa#0eeggggggggg88awaaasssssgqttt4qr3rttttttt435s:22",
"22:sqqagaaaaaga#0s8egggaaaagg8ag6sssssse2qryr4qqw3433333334qs:22",
"22:sqqeggggggggg00e8ggeggggggeeaasssse>=gggeaqqqqqqqqqqqqqqqs:22",
"2g:sqqagaaggggg##0se8gg2gggggaaeaeeae>2ggggaetqqqqqqqqqqqqqqs:g2",
"22:sqqaaggggggg##0ss2eggggggggaaee888agggggeettqqqqqqqqqqqqqs:22",
"22:sqqagaaggggga#0yse>gggggaggeggaagggagggee5tt4qqqqqqqqqqqqs:22",
"22:sqqeagaaagaaa#0sss>=gggggggeagaggggaage<5ttr3qqqyqqqqqqqqs:22",
"22:sqq5aggggaagg000sss=>gggggg8ggagggaasa55ttrr3yqqqqqqqqqqqs:22",
"22:sqq28eggggggg#000sss8>88ggggggageageeaq3443-3qqqqqqqqqqqqs:22",
"22:sqq52eeggggg82,000sse2*==8>>ea8eeeesggq4--33qqqqqqqqqqqqqs:22",
"22:sqqq<228aaw888g=78eysse281221eeesssg0qqqqqqqqqqqqqqqqqqqqs:22",
"22:sqqqq82222828qaa,,Xeessssssssygssg007qqqqqqqqyqqqqqqqqqqqs:22",
"22:sqqqqq<e8222qqaaee,,700ssssss&&&07,28qqqqyqqqqqqqqqqqqqqqs:g2",
"22:sqqqqqqqqqqqqqaeeaagaa,,,,,,,,,,e8eagqqqqqqqqqqqqqqqqqqqqs:22",
"22:sqqqqqqqqqyqqqga8agaaaagqqgwaae8eagggqqqqqqqqqqqqqqqqqqqqs:22",
"2g:sqqqqqqqqqqqq5agge8eeggaqqggggaggaaggyyqqqqqqqqqqqqqqqqqqs:22",
"22:sqqqqqqqqqqqiqaeagaaagaaqqggaaaaaagggqqqqqqqqqqqqqqqqqqqqs:22",
"22:sqqqqqqqqqqqqqgaeagggggeqqaagggggygggqqqqqqqqqqqqqqqqqqqqs:22",
"22:sqqqqqqqqqqqyqggae;<<<<eqqgeeagggga5gqqqqqqyqqqqqqqqqqqqqs:22",
"22:sqqqqqqqqqqqqqaaaaagggagyqqg5<<<6<5ggyqqqqqqqqqqqqqqqqqqqs:22",
"22:sqqqqa<<;;%%;5ggaggyggggqqqgaaaaaeae8gqqqqqqqqqqqqqqqqqqqs:22",
"22:sqqqqq55<55;%5gggagygggggqaagyyagggggggqqqqqqqqqqqqqqqqqqs:22",
"22:sqqqq555555<55aaggaaggggggaeaaggaeagggggqqqqqqqqqqqqqqqqqs:g2",
"22:sqqqqqqq555;555eegggaggggaae8eagggaegggaqqqqqqqqqqqqqqqqqs:22",
"22:sqqqqqqqqqq5<<<qeeaygagaaggaa88eeaaggggaqqqqqqqqqqqqqqqqqs:22",
"22:sqqqqqqqqqq5<;<<;eeaggaggggaq5aaeaeee8825qqqqqqqqqqqqqqqqs:22",
"22:sqqqqqqqqqqqq<<<;5<eeaaaaaeeq55555<<82>;qqqqqqqqqqqqgqqqqs:22",
"2g:sqqqqqqqqqqq555<<;<<5ee888eeq<<<<5555<<5qqqqqqqqqqqqqqqqqs:22",
"22:sqqqqqqqqqqqq555<e<<;<;<<55qq555<<<<<<5<qqqqqqqqqqqqqqqqqs:22",
"22:sqqqqqgqqqqqqq555<555555555qqq55q55555a5qqqqqqqqqqqqqqqqqs:22",
"22:sqqqqqqqqqqqqqqq555<<<<<5<55qqqq5555555qqqqqqqqqqqqqgqqqqs:g2",
"22:sqqqqqqqqqqqqqqqqq55555555qqqqqqqqqqqqqqqqqqqqqqqqqqqqqqqs:22",
"22:sqqqqqqqqqqqqqqqqqq555qqqqqqqqqqqqqqqqqqqqqqqqqqqqqqqqqqqs:22",
"22:sqqqqqqqqqqqqqqqqqqqqqqqqqqqqqqqqqqqqqqqqqqqqqqqqqqqqqqqqs:22",
"22:ssssssssssssssssssssssssssssssssssssssssssssssssssssssssss:22",
"22::::::::::::::::::::::::::::::::::::::::::::::::::::::::::::22",
"2g222222222g22222222222g2222222222g222222222g222222222g2222222g2",
"2222222222222222222222222222222222222222222222222222222222222222"
};