/* XPM */
static char *a52346177f834b639ca5fffe377aabd6yukujvxy1Ae7WoQm[] = {
/* columns rows colors chars-per-pixel */
"64 64 221 2 ",
"   c #0C1019",
".  c #181516",
"X  c #13151B",
"o  c #1C1A1C",
"O  c #251C18",
"+  c #28221E",
"@  c #151923",
"#  c #191C24",
"$  c #151C28",
"%  c #211F21",
"&  c #1E2125",
"*  c #1C222B",
"=  c #1B2433",
"-  c #192537",
";  c #242324",
":  c #2B2624",
">  c #25272B",
",  c #322925",
"<  c #36312D",
"1  c #3D332E",
"2  c #212731",
"3  c #222934",
"4  c #2A2E37",
"5  c #242D3B",
"6  c #25323A",
"7  c #2B323C",
"8  c #36383B",
"9  c #483025",
"0  c #433B35",
"q  c #563E34",
"w  c #314538",
"e  c #4A463B",
"r  c #54483D",
"t  c #6A4938",
"y  c #754D3A",
"u  c #1D334D",
"i  c #2B3645",
"p  c #373A41",
"a  c #333D4B",
"s  c #243C57",
"d  c #313E52",
"f  c #38414D",
"g  c #395347",
"h  c #394755",
"j  c #3C4B5C",
"k  c #284666",
"l  c #335070",
"z  c #43464B",
"x  c #574B44",
"c  c #5C544A",
"v  c #434C56",
"b  c #414D5B",
"n  c #46515C",
"m  c #5A5756",
"M  c #68564A",
"N  c #785946",
"B  c #695B54",
"V  c #79675A",
"C  c #485666",
"Z  c #4C5C6B",
"A  c #505F6D",
"S  c #475D78",
"D  c #54636F",
"F  c #4B617C",
"G  c #546574",
"H  c #54667C",
"J  c #5A6D7C",
"K  c #5D717F",
"L  c #6B6A6A",
"P  c #7B6D62",
"I  c #72716F",
"U  c #777373",
"Y  c #90674D",
"T  c #A87357",
"R  c #BC7755",
"E  c #856F62",
"W  c #897465",
"Q  c #947D6D",
"!  c #8A7E75",
"~  c #C27654",
"^  c #C37956",
"/  c #C27758",
"(  c #C47B5A",
")  c #50947B",
"_  c #BF815C",
"`  c #9A8474",
"'  c #A88C7A",
"]  c #AD927F",
"[  c #B4937F",
"{  c #C5805E",
"}  c #C88768",
"|  c #CB8F71",
" . c #CC9678",
".. c #D49879",
"X. c #2A598B",
"o. c #31669B",
"O. c #3373B4",
"+. c #526986",
"@. c #5E7281",
"#. c #5B738D",
"$. c #4D6A91",
"%. c #5C7697",
"&. c #617584",
"*. c #627789",
"=. c #657A8A",
"-. c #687E8E",
";. c #647B93",
":. c #647FA7",
">. c #377DC7",
",. c #69808F",
"<. c #6C8394",
"1. c #66829E",
"2. c #6D8599",
"3. c #728A9B",
"4. c #58A588",
"5. c #69B09B",
"6. c #4C86BE",
"7. c #6985A6",
"8. c #748DA1",
"9. c #7B95A9",
"0. c #6990B7",
"q. c #7392B3",
"w. c #7B99B7",
"e. c #7ACFB4",
"r. c #3A85C9",
"t. c #2C85DD",
"y. c #2E89DE",
"u. c #3689DA",
"i. c #338BDE",
"p. c #2E88E1",
"a. c #338CE2",
"s. c #358BE5",
"d. c #3691E7",
"f. c #3B91E3",
"g. c #5095DA",
"h. c #6898C8",
"j. c #7599C3",
"k. c #659CD2",
"l. c #7DA2CA",
"z. c #6AA2D4",
"x. c #7AAAD9",
"c. c #408EE0",
"v. c #4997E2",
"b. c #539CE3",
"n. c #589BE3",
"m. c #5DA1E6",
"M. c #62A4E6",
"N. c #67A8E8",
"B. c #75ACE8",
"V. c #6FB0EF",
"C. c #7DB0E4",
"Z. c #7CB2E9",
"A. c #8A8A8C",
"S. c #AD9682",
"D. c #B89A86",
"F. c #BEA18E",
"G. c #809BAE",
"H. c #829DB2",
"J. c #879EB9",
"K. c #85A1B6",
"L. c #8AA7BD",
"P. c #AFAEAF",
"I. c #CB9B81",
"U. c #D39C82",
"Y. c #C5A48D",
"T. c #C9A58D",
"R. c #D3A58B",
"E. c #D8A78B",
"W. c #C6A995",
"Q. c #CDAC95",
"!. c #D6AD94",
"~. c #D5AD97",
"^. c #D6B39D",
"/. c #DBB69B",
"(. c #D9B49D",
"). c #E0B092",
"_. c #CFB6A3",
"`. c #DAB6A1",
"'. c #D9B9A3",
"]. c #DDBAA3",
"[. c #E1BCA1",
"{. c #EAC2A9",
"}. c #8DABC2",
"|. c #86A6CC",
" X c #91B1C7",
".X c #94B3CA",
"XX c #84ABD7",
"oX c #91AFD3",
"OX c #8BB2D8",
"+X c #9BBDD4",
"@X c #82AFE4",
"#X c #87B4E5",
"$X c #89B6EB",
"%X c #8CBAEC",
"&X c #92B9E5",
"*X c #91BCEC",
"=X c #86B8F1",
"-X c #92BEF1",
";X c #9EC0D8",
":X c #A2C4DD",
">X c #93C0F1",
",X c #A6C9E3",
"<X c #A6CAE3",
"1X c #AACEE8",
"2X c #ADD3ED",
"3X c #AFD5F0",
"4X c #B0D6F1",
"5X c #B3DAF5",
"6X c #B7DDF9",
"7X c #B8DFFB",
"8X c #B9E1FD",
"9X c #BBE3FF",
"0X c #C9C9C8",
"qX c #D0D0CD",
"wX c #D3D4D3",
"eX c #DDDDDC",
"rX c #EAEAE9",
"tX c #EFEFF0",
"yX c #F4F4F4",
"uX c #F7F7F8",
"iX c #FEFEFE",
/* pixels */
"9X9X9X9X9X9X9X9X9X9X9X9X9X9X9X9X9X9X9X9X9X9X9X9X9X9X9X9X9X9X9X9X9X9X9X9X9X9X9X9X9X9X9X9X9X9X9X9X9X9X9X9X9X9X9X9X9X9X9X9X9X9X9X9X",
"9X9X9X9X9X9X9X9X9X9X9X9X9X9X9X9X9X9X9X9X9X9X9X9X9X9X9X9X9X9X9X9X9X9X9X9X9X9X9X9X9X9X9X9X9X9X9X9X9X9X9X9X9X9X9X9X9X9X9X9X9X9X9X9X",
"9X9X9X9X9X9X9X9X9X9X9X9X9X9X9X9X9X9X9X9X9X9X9X9X9X9X9X9X9X9X9X9X9X9X9X9X9X9X9X9X9X9X9X9X9X9X9X9X9X9X9X9X9X9X9X9X9X9X9X9X9X9X9X9X",
"9X9X9X9X9X9X9X9X9X9X9X9X9X9X9X9X9X9X9X9X9X9X9X9X9X9X9X9X9X9X9X9X9X9X9X9X9X9X9X9X9X9X9X9X9X9X9X9X9X9X9X9X9X9X9X9X9X9X9X9X9X9X9X9X",
"9X9X9X9X9X9X9X9X9X9X9X9X9X9X9X9X9X9X9X9X9X9X5X1X9X9X9X9X9X9X9X9X9X9X9X9X9X9X9X9X9X9X9X9X9X9X9X9X9X9X9X9X9X9X9X9X9X9X9X9X9X9X9X9X",
"9X9X9X9X9X9X9X9X9X9X9X9X9X9X9X9X9X9X9X9X9X9X:X* b 9.6X9X9X9X9X9X9X9X9X9X9X9X+X9X9X9X9X9X9X9X9X9X9X9X9X9X9X9X9X9X9X9X9X9X9X9X9X9X",
"9X9X9X9X9X9X9X9X9X9X9X9X9X9X9X9X9X9X9X9X9X9X9X3 #.6 i .X9X9X9X9X9X9X9X9X9X9Xn *.7X9X9X9X9X9X9X9X9X9X9X9X9X9X9X9X9X9X9X9X9X9X9X9X",
"9X9X9X9X9X9X9X9X9X9X9X9X9X9X9X9X9X9X9X9X9X9X9Xa |.&X1.* &.6X9X9X9X9X9X9X9X4X7 > 9.9X9X9X9X9X9X9X9X9X9X9X9X9X9X9X9X9X9X9X9X9X9X9X",
"9X9X9X9X9X9X9X9X9X9X9X9X9X9X9X9X9X9X9X9X9X9X6Xb q.g.#XOX6 b 3X9X9X9X9X9X9X.X5 w.2 5X9X9X9X9X9X9X9X9X9X9X9X9X9X9X9X9X9X9X9X9X9X9X",
"9X9X9X9X9X9X9X9X9X9X9X9X9X9X9X9X9X9X9X9X9X9X,Xh 7.v.u.B.*Xj f 2X9X9X9X9X9XG +.>Xa 8.9X9X9X9X9X9X9X9X9X9X9X9X9X9X9X9X9X9X9X9X9X9X",
"9X9X9X9X9X9X9X9X9X9X9X9X9X9X9X9X9X9X9X9X9X9X2Xj %.b.i.i.M.-Xj a 2X9X9X9X1X@ l.%X;.a 9X9X9X9X9X9X9X9X9X9X9X9X9X9X9X9X9X9X9X9X9X9X",
"9X9X9X9X9X9X9X9X9X9X9X9X9X9X9X9X9X9X9X9X9X9X5XC $.n.i.i.y.n.-Xj j 5X9X9XG j %X$XXX@ 1X9X9X9X9X9X9X9X9X9X9X9X9X9X9X9X9X9X9X9X9X9X",
"9X9X9X9X9X9X9X9X9X9X9X9X9X9X9X9X9X9X9X9X9X9X6XC %.n.i.a.a.p.n.*Xa Z 6X.X$ x.B.$X-X= .X9X9X9X9X7X.X9X9X9X9X9X9X9X9X9X9X9X9X9X9X9X",
"9X9X9X9X9X9X9X9X9X9X9X9X-.C J 3..X5X9X9X9X9X9Xn :.b.a.a.a.a.p.M.&X3 -.6 7.n.B.$X-Xd w.9X9X9X6X=.6 5X9X9X9X9X9X9X9X9X9X9X9X9X9X9X",
"9X9X9X9X9X9X9X9X9X9X9X9X}.# #.j 2 2 @.:X9X9X9Xa j.c.a.a.a.a.a.y.B.|.X F Z.u.=X$X*XC 2.9X9X5XG > > ,X9X9X9X9X9X9X9X9X9X9X9X9X9X9X",
"9X9X9X9X9X9X9X9X9X9X9X9X2X6 l.B.C.j.S * C +X6X3 XXu.a.a.a.a.a.a.u.=Xj.=Xu.c.$X$X%XF ;.9X:Xh a OXa }.9X9X9X9X9X9X9X9X9X9X9X9X9X9X",
"9X9X9X9X9X9X9X9X9X9X9X7X.Xb S b.p.s.m.@XF * *.5 Z.y.a.a.a.a.a.a.a.b.Z.u.y.N.$X$X*XF *.H.= G %X*XC 9.9X9X9X9X9X9X9X9X9X9X9X9X9X9X",
"9X9X9X9X9X9X9X9X9X9X9X9X+XG = B.p.a.a.s.M.j.i S m.i.a.a.a.a.s.d.s.s.s.s.a.=X$X$X*XS - i w.z.@X&XZ 2.9X9X9X9X9X9X9X9X9X9X9X9X9X9X",
"9X9X9X9X9X9X9X9X9X9X9X9X3X2.X l.a.a.s.a.a.f.C.XXi.a.a.d.r.o.l k s s k X.6.-X-X%X>XC 7.x.g.C.$X&XZ ;.9X9X9X9X9X9X9X9X9X9X9X9X9X9X",
"9X9X9X9X9X9X9X9X9X9X9X9X7XL.* q.f.a.a.a.a.a.a.v.a.r.l - X , x B B B c 0 ; # h 7.%X>X%XC.%X$X$X*XC 1.9X9X9X9X9X9X9X9X9X9X9X9X9X9X",
"9X9X9X9X9X9X9X9X9X9X9X9X9X+Xi %.v.a.a.a.a.a.s.u.k X < ! W.'.'.`.`.`.].].`.D.B . > 7.>X%X$X$X#X*Xh 8.9X9X9X9X9X9X9X9X9X9X9X9X9X9X",
"9X9X9X9X9X9X9X9X9X9X9X9X9X1Xj +.b.a.a.a.a.s.o.$ 0 ' ].`.(.(.(.^.^.^.^.^.(.`.].^.P o f XX%X$X$X*X5 w.7X9X9X9X9X9X9X9X9X9X9X9X9X9X",
"9X9X9X9X9X9X9X9X9X9X9X9X9X5XZ S b.a.a.a.d.k X Q (.!.(.^.^.^.^.^.^.^.^.^.^.^.^.(.`.Q.z @ q.%X$X#X* L.9X9X9X9X9X9X9X9X9X9X9X9X9X9X",
"9X9X9X9X9X9X9X9X9X9X9X9X9X6XG F b.i.a.u.s : F.R.| (.^.^.^.^.^.^.^.^.^.^.^.^.^.^.^.(.].V X 7.-Xq.* 8.,X5X9X9X9X9X9X9X9X9X9X9X9X9X",
"9X9X9X2X6X9X9X9X9X5X,X.Xw.;.5 +.c.a.d.s + ^.| _ /.(.^.^.^.^.^.^.^.^.!.I. ...!.(.^.^.(./.E X w.oXH i 3 5 a b C :X9X9X9X9X9X9X9X9X",
"9X9X6XC * 4 3 3 3 = - i h C %.x.a.s.X.o Q.| R E.(.^.^.^.^.^.^.^.^.I.T Y N N t N T.(.^.(.].V 2 |.&X*XOXl.q.H 7 4X9X9X9X9X9X9X9X9X",
"9X9X6XH.# q.XXx.x.C.C.N.M.b.v.s.a.O.  '  .R | `.^.^.^.^.^.^.^.^.^.Q.].[./.'.].F.N ' (.^.].E X & 6 7.$X#X*Xa J 2X9X9X9X9X9X9X9X9X",
"9X9X9X:XC 7 #Xy.t.t.t.p.a.a.a.a.s.u x )./ R !.^.^.^.^.^.^.^.(.`.D.V 0 : ; : 1 V Q.[ T.(.W > w.L.@.i *X%X#.2 2.2X9X9X9X9X9X9X9X9X",
"9X9X9X6XK.6 j B.t.i.i.a.a.s.s.s.O.# !.{ / } (.^.^.^.^.^.^.(.Y.0 ; F 0.h.k.h.q.C ; V ^.Q.; J.*.; ; j x.%.* G H.6X9X9X9X9X9X9X9X9X",
"9X9X9X9X1X<.* #.N.y.i.a.a.a.s.d.u B ..~ /  .(.^.^.^.^.^.(.Q.: S k.6.o.l s s l 0.q.f ; : J w.; m I z a * A <.:X9X9X9X9X9X9X9X9X9X",
"9X9X9X9X9X.XJ @ #.M.y.i.a.a.s.>.X [ ( / ~ R.^.^.^.^.^.^.(.[ O S d > ; > U A.L * k h.|.oXOXp 0XiXiXyXA.2 *.}.6X9X9X9X9X9X9X9X9X9X",
"9X9X9X9X9X5XK.G @ *.N.a.i.a.s.X.: E./ / ~ !.^.^.^.^.^.^.(.R.y 9 N q z eXiXiXiXeXp - l $.3 P.rXiXiXiXyX8 <.4X9X9X9X9X9X9X9X9X9X9X",
"9X9X9X9X9X9X2X8.G * j @Xf.i.s.k M ../ / ~ !.^.^.^.^.^.^.^.(...} T : qXyXiXiXiXiXwXo q q + eXtXiXiXiXP.L 3.9X9X9X9X9X9X9X9X9X9X9X",
"9X9X9X9X9X9X9X:X<.J 6 = 7.M.d.- Q } / / / ^.^.(.^.^.^.^.^.(.]. .y m eXiXiXiXiXiXyXm Q U.9 qXrXiXiXiXtXm 9.9X9X9X9X9X9X9X9X9X9X9X",
"9X9X9X9X9X9X9X9X+X<.@.j   q.v.$ D.( / / ~ ^.^.^.^.^.^.^.^.(.`. .t U wXiXiXiXiXtXA.! V !.t L eXrXuXtXqX& .X9X9X9X9X9X9X9X9X9X9X9X",
"9X9X9X9X9X9X9X9X6X.XC @ #.N.u.@ Y.^ / / ~ !.^.^.^.^.^.^.^.^.`.I.y B qXyXiXiXiXiXiXc Q (.I., I 0XqXP.8 C .X9X9X9X9X9X9X9X9X9X9X9X",
"9X9X9X9X9X9X9X6XH.a 2 w.N.i.u.@ Y.^ / / ~ R.(.^.^.^.^.^.^.^.^.!.T O 0X0XyXiXiXyX0X. Y.^.^.T.V e 1 + p =.+X9X9X9X9X9X9X9X9X9X9X9X",
"9X9X9X9X+X9.G * 3 ;.-Xb.i.i.s.$ D.( / ^ ^ ..(.^.^.^.^.^.^.^.^.`.I.y 0 0XqXwXeX0X< P '.(.^.Y.` B < : v 3.2X9X9X9X9X9X9X9X9X9X9X9X",
"9X9X9X9XH.X f |.$Xm.u.i.i.i.s.- ' } / ^ ^ } (.^.^.^.^.^.^.^.^.^.`.Y.M O m U c + ! _.` M 1 ; > z Z J ,.+X9X9X9X9X9X9X9X9X9X9X9X9X",
"9X9X9X9X+XJ X H Z.f.y.i.i.a.s.s V ../ ^ ^ ^ ^.(.^.^.^.^.^.^.^.^.^.`.'.Q.` V V P 0 o ; p n J &.@.@.@.H.6X9X9X9X9X9X9X9X9X9X9X9X9X",
"9X9X9X9X5XK.J 3 6 q.V.f.y.i.s.X.1 E./ ^ ^ ^ ..(.^.^.^.^.^.^.^.(.].`.S.V e , : 8 n D J @.@.@.@.@.&.-..X9X9X9X9X9X9X9X9X9X9X9X9X9X",
"9X9X9X9X9X2XH.&.j @ a w.C.b.s.O.. Y./ / ^ ^ / ^.^.^.^.^.`.`.W.` r O . 4 z D &.&.K @.@.&.@.@.&.<.K.:X6X9X9X9X9X9X9X9X9X9X9X9X9X9X",
"9X9X9X9X9X9X2XH.*.J j = - %.v.s.= E | ~ / / / | (.^.^.Q.M , O : z C J @.@.K @.@.@.@.@.&.-.9..X1X6X9X9X9X9X9X9X9X9X9X9X9X9X9X9X9X",
"9X9X9X9X9X9X9X4XL.-.@.@.* 7.f.s.X., !.~ / / / ~ R.(.^.(.^.W 1 O 8 C K @.@.@.@.@.@.=.3.L.:X5X9X9X9X9X9X9X9X9X9X9X9X9X9X9X9X9X9X9X",
"9X9X9X9X9X9X9X9X6X+X3.f 5 C.i.s.i.= E ..~ / / / / E.(.(.^.`.].D.< > & h G &.=.3.K.+X2X6X9X9X9X9X9X9X9X9X9X9X9X9X9X9X9X9X9X9X9X9X",
"9X9X9X9X9X9X9X9X9X6X-.# OXv.a.s.s.o.. T.} ~ ~ ~ / / !.(.^.(.S.S.e e.) 6 X i 8.1X6X9X9X9X9X9X9X9X9X9X9X9X9X9X9X9X9X9X9X9X9X9X9X9X",
"9X9X9X9X9X9X9X9X:XC 2 OXB.a.p.a.a.s.s 1 /.( ~ / / ^ / U.(.(.c c ` g 4.e.5.g o 7 =.:X9X9X9X9X9X9X9X9X9X9X9X9X9X9X9X9X9X9X9X9X9X9X",
"9X9X9X9X9X9X9X9XH.7 # h 1.XX#XZ.B.m.u.- r [.( ~ ~ ^ ^ ~ } !.Q.Y./.W ) 4.w 8 W.` 1 X b L.5X9X9X9X9X9X9X9X9X9X9X9X9X9X9X9X9X9X9X9X",
"9X9X9X9X9X9X9X9X2X X&.h 6 * # 2 3 k.s.>.$ x [.| ~ ~ / / / / | R.!.] e M !.(.^.^.(.D.V o 4 .X9X9X9X9X9X9X9X9X9X9X9X9X9X9X9X9X9X9X",
"9X9X9X9X9X9X9X9X+X3.&.@.@.@.J i j M.a.f.k.2 1 Q.E.( ~ ~ / ^ ~ ~ ( | I.R.R.R.R.!.^./.W . &.6X9X9X9X9X9X9X9X9X9X9X9X9X9X9X9X9X9X9X",
"9X9X9X9X9X9X9X9X6X:XK.<.&.@.C $ }.l.0.;.b 2 4 O E /.E.| ( ~ ~ ~ / R R R }  .E.].D.e & 9.9X9X9X9X9X9X9X9X9X9X9X9X9X9X9X9X9X9X9X9X",
"9X9X9X9X9X9X9X9X9X9X6X,X}.*.# @ @ @ 2 i C J @.C o O V ^.{./.E.E.U.R.E./.].].S.r . 7 3..X,X6X9X9X9X9X9X9X9X9X9X9X9X9X9X9X9X9X9X9X",
"9X9X9X9X9X9X9X9X9X9X9X9X9X4X:X8.J K @.@.@.@.@.@.J v > . 1 V Q ' S.] ` E c : o 8 Z @.@.&.3.,X9X9X9X9X9X9X9X9X9X9X9X9X9X9X9X9X9X9X",
"9X9X9X9X9X9X9X9X9X9X9X9X9X9X:X<.@.@.@.@.@.@.@.@.@.@.K G n 8 ; o . o % 4 f Z J @.@.@.@.-..X6X9X9X9X9X9X9X9X9X9X9X9X9X9X9X9X9X9X9X",
"9X9X9X9X9X9X9X9X9X9X9X9X9X2X9.=.&.&.&.&.=.2.3.*.@.@.@.@.@.@.@.@.K K @.&.K K @.K @.&.2.+X6X9X9X9X9X9X9X9X9X9X9X9X9X9X9X9X9X9X9X9X",
"9X9X9X9X9X9X9X9X9X9X9X9X9X6X1X;X.X}.}..X;X2X2XL.<.@.@.@.@.@.@.@.@.@.@.K K @.@.@.*.9.,X9X9X9X9X9X9X9X9X9X9X9X9X9X9X9X9X9X9X9X9X9X",
"9X9X9X9X9X9X9X9X9X9X9X9X9X9X9X9X9X9X9X9X9X9X9X6X:XG.-.&.@.@.@.@.@.@.@.@.@.@.=.8..X4X9X9X9X9X9X9X9X9X9X9X9X9X9X9X9X9X9X9X9X9X9X9X",
"9X9X9X9X9X9X9X9X9X9X9X9X9X9X9X9X9X9X9X9X9X9X9X9X9X5X:XL.8.-.*.&.&.&.*.-.3.H.+X2X9X9X9X9X9X9X9X9X9X9X9X9X9X9X9X9X9X9X9X9X9X9X9X9X",
"9X9X9X9X9X9X9X9X9X9X9X9X9X9X9X9X9X9X9X9X9X9X9X9X9X9X9X7X4X,X+X.X X.X+X:X2X6X9X9X9X9X9X9X9X9X9X9X9X9X9X9X9X9X9X9X9X9X9X9X9X9X9X9X",
"9X9X9X9X9X9X9X9X9X9X9X9X9X9X9X9X9X9X9X9X9X9X9X9X9X9X9X9X9X9X9X9X9X9X9X9X9X9X9X9X9X9X9X9X9X9X9X9X9X9X9X9X9X9X9X9X9X9X9X9X9X9X9X9X",
"9X9X9X9X9X9X9X9X9X9X9X9X9X9X9X9X9X9X9X9X9X9X9X9X9X9X9X9X9X9X9X9X9X9X9X9X9X9X9X9X9X9X9X9X9X9X9X9X9X9X9X9X9X9X9X9X9X9X9X9X9X9X9X9X",
"9X9X9X9X9X9X9X9X9X9X9X9X9X9X9X9X9X9X9X9X9X9X9X9X9X9X9X9X9X9X9X9X9X9X9X9X9X9X9X9X9X9X9X9X9X9X9X9X9X9X9X9X9X9X9X9X9X9X9X9X9X9X9X9X",
"9X9X9X9X9X9X9X9X9X9X9X9X9X9X9X9X9X9X9X9X9X9X9X9X9X9X9X9X9X9X9X9X9X9X9X9X9X9X9X9X9X9X9X9X9X9X9X9X9X9X9X9X9X9X9X9X9X9X9X9X9X9X9X9X",
"9X9X9X9X9X9X9X9X9X9X9X9X9X9X9X9X9X9X9X9X9X9X9X9X9X9X9X9X9X9X9X9X9X9X9X9X9X9X9X9X9X9X9X9X9X9X9X9X9X9X9X9X9X9X9X9X9X9X9X9X9X9X9X9X"
};
