/* XPM */
static char *dc713711e2f14864aed401cd1ef209e6y5WUrOlhKk8LICyr[] = {
/* columns rows colors chars-per-pixel */
"64 64 104 2 ",
"   c #2C2E33",
".  c #2E3136",
"X  c #2E3339",
"o  c #303337",
"O  c #32363B",
"+  c #35393D",
"@  c #3B3C3D",
"#  c #343741",
"$  c #373B42",
"%  c #3B3D42",
"&  c #3E4245",
"*  c #3F4449",
"=  c #434445",
"-  c #4A4744",
";  c #474847",
":  c #4C4946",
">  c #43464A",
",  c #484748",
"<  c #45494D",
"1  c #4B4C4D",
"2  c #504A47",
"3  c #514E4C",
"4  c #4F504F",
"5  c #52504F",
"6  c #464C51",
"7  c #4B4E51",
"8  c #504F50",
"9  c #475155",
"0  c #4D5154",
"q  c #4E5459",
"w  c #4F595E",
"e  c #525354",
"r  c #595655",
"t  c #575856",
"y  c #5C5A57",
"u  c #52565A",
"i  c #54595D",
"p  c #5A5B5D",
"a  c #4F5A60",
"s  c #565B61",
"d  c #5A5E62",
"f  c #5C6165",
"g  c #5E6469",
"h  c #5F686B",
"j  c #616366",
"k  c #61656B",
"l  c #64676E",
"z  c #60686C",
"x  c #64696D",
"c  c #696A6B",
"v  c #696C6D",
"b  c #646B70",
"n  c #646C71",
"m  c #656C71",
"M  c #676C71",
"N  c #676E74",
"B  c #6A6C71",
"V  c #6E6E70",
"C  c #696C74",
"Z  c #6E7174",
"A  c #6C7176",
"S  c #6B7278",
"D  c #6D747A",
"F  c #6F777E",
"G  c #707274",
"H  c #71757B",
"J  c #70787E",
"K  c #70787F",
"L  c #74797E",
"P  c #797879",
"I  c #717A81",
"U  c #737A81",
"Y  c #767B82",
"T  c #747C82",
"R  c #767E84",
"E  c #797E84",
"W  c #787E86",
"Q  c #7C8186",
"!  c #7B8189",
"~  c #7C8389",
"^  c #7D8489",
"/  c #7E858C",
"(  c #818387",
")  c #81868B",
"_  c #82898D",
"`  c #858A8F",
"'  c #838992",
"]  c #868B91",
"[  c #878D92",
"{  c #888E93",
"}  c #8A9095",
"|  c #8B9095",
" . c #949796",
".. c #92969C",
"X. c #93989D",
"o. c #989DA2",
"O. c #9BA1A7",
"+. c #9EA3A8",
"@. c #A1A6AB",
"#. c #A8ADB2",
"$. c #ABB0B4",
"%. c #B0B5B8",
"&. c #B4B7BB",
"*. c #B8BCBE",
/* pixels */
"7 w w w w w w w a w w w w q q 9 6 6 6 q q q q w s i w q q 0 0 6 < * + * < 6 6 6 6 0 0 0 9 0 0 6 6 6 9 6 6 6 6 6 6 6 6 < < * & < ",
"O.$.*.%.#.@.O.} ' / T U R U F F J U U U U U U U U U U R ^ ^ ^ _ o.g & U [ ^ ~ R J F F S Z Z B n n n n x g g x h g g g f d n 0 q ",
"..N s Z 7 < < < < 6 0 0 q u u u u u f i s d d u u u u q i u i g U d % C B d d d d f l k f d k f f f f k k g f f s s g U ! ` 6 < ",
"' s v > u & > > < 7 0 0 7 1 < < < < > < > & & % % $ % % % % % 0 B d # l k & $ @ = > > > < 1 1 1 1 7 0 0 0 0 0 < > > * > u W < 6 ",
"W s 0 p , > < < 6 7 7 7 0 7 < < > > > < > > & & & % % % $ % % = z i + k B > d V i < 1 , > , , , > , < > > > = & & & & & > J < 6 ",
"R h @ @ = i i i i i 0 0 0 7 0 0 7 6 < 7 < > > < > = = & % @ & > g s + k J % j 1 r ; 1 1 1 1 , , > < > > > < > > * < < * * S < < ",
"F n q 0 u s s s u q 0 0 0 0 0 u 0 0 7 7 7 7 < < < < < < > > & > f d O k G > > y , , 1 1 1 1 , , , , 1 1 7 6 < < < > > < < b < < ",
"C z i q 7 < & & & & * > > < 7 7 7 7 7 7 7 7 7 1 1 1 1 1 1 < > 1 d d O k L 1 % @ @ , 1 1 , 1 1 1 1 7 1 7 7 7 7 7 < Z G t < b < < ",
"D g q 0 < > > > > > * < 0 7 < 7 7 7 7 7 7 7 7 7 1 1 7 7 7 1 < < t d O g J q > = < 1 0 e 1 1 1 1 1 7 1 < < 0 q 0 > t 0 u > z < < ",
"J g u 7 < < < < < 1 < 7 0 u u 0 0 0 0 0 0 7 7 7 1 1 7 7 7 1 P p 0 s O d W d q 0 0 7 e e 0 e 0 0 7 1 < 1 7 0 q 0 0 > y = 0 z < < ",
"Y f u 0 7 1 < < < 7 7 7 u 0 u q u u 0 0 0 7 1 7 7 7 7 7 7 y 4 e 7 d O s ~ f s d i u t e e e e 0 0 7 7 7 7 0 0 q 0 > = 1 0 k < < ",
"U s 0 7 1 7 1 1 1 < 1 7 u u u u u u u 0 7 6 7 0 7 7 1 7 7 = y y > f O s ) f i s f d i e e u u u u u q u q 7 0 q 0 0 7 e 0 z < < ",
"W k 0 7 7 u 0 0 e t 0 0 u u i u i u u 7 7 0 7 7 7 7 1 7 1 > + @ 7 f O s ^ z f b l d e 0 e e e e e e u u u q 0 q u q e u e g < < ",
"W s 0 0 7 0 0 e 0 e u u i s s s i i u u y e 0 1 1 1 1 1 1 7 > < 0 f + s ^ W J k 0 , 1 1 1 0 e 0 0 0 e 0 0 0 q q u u u u q d < < ",
"J s q 0 0 0 0 e e t u i i i i s i i i u e e e 7 1 1 1 1 1 7 < 7 u f O i ) H d 1 < 1 e 4 1 0 e 0 0 0 u e 0 q 0 0 i s i u u f 6 < ",
"J i 0 u i 0 u e u u u i i i i i s i u u u e e 0 0 1 1 1 7 0 0 7 d k O i ~ S u > < 1 e e e e e e e 0 0 0 0 0 7 6 > > < e 7 f 7 < ",
"H z g 0 u 0 0 e e e u u i i i i i i i i u u u 0 7 7 7 7 e u q 0 d k + s W Z d 0 1 1 1 0 u 0 e e e e e 0 0 0 0 6 < > & & q & < < ",
"H b 0 0 0 0 0 0 0 0 q u u u u u i i i i u 0 0 0 0 0 0 e u u u q i k + s Y B d u t t e t e e e e e e e e u u q 7 < > > > u 0 & < ",
"Z g u q 0 0 0 0 0 0 0 0 q q u u i i i u u q u u u u u u u u u u s f + s H J g f g f d i i t t t e e u u u i i q q u u u s W < < ",
"C z d i u u u u u q q q q u u i i i i u u u u u u u u i i i i u f f + s S J b b b x g f f f i t u u t u u u u q u i q q 0 J t < ",
"C C z f d d d s s s i i i i i u i i u u q u u u i i i i s s s s f f O d S Y F Z N z f i 0 0 0 0 0 0 q q 0 0 0 0 0 7 0 0 7 l 0 < ",
"B J C N n x z k g f f d s s s s d d d s s d f f d f g f f f f g z f + f Z L k k i 6 < < < < < < < < < < < < 6 7 < > < 7 < f 7 > ",
"g { ) ` ~ J C n x g g g f f g g g g g f f d d d f f k x B Z H H Z g O d B ( W f < > > > > < > < < < < < 6 6 < < & c G t 7 d 7 * ",
"f ) W C g d i u u u u u i i i i i i i i u u u u u i i i d i i f L k + d b &.Z 0 < < < < < < < < 6 6 6 7 0 0 7 < = u 1 4 1 d 7 & ",
"d W l u V H e 7 1 1 7 1 < < < < < < < < < < < < > > > & f k > < n j + i Z ~ u 7 < < < 7 7 7 7 7 0 7 < 7 7 0 7 6 > > u = 0 d 0 % ",
"d Y l e G 1 t 1 1 1 1 < > > > > > * & & & = = & & & & = c 1 0 > x i O i H H 1 > > < 7 0 0 7 7 1 1 < > < 7 0 0 7 < = @ 1 7 k q $ ",
"d U B 7 u y - 4 1 1 1 1 < < < > > > > > > > > = & & & % e t > > b 7 O i F S 0 < < < 0 0 0 7 1 , 1 > > > > 0 0 7 0 1 , 0 0 z s + ",
"d H C u @ @ = 1 1 1 1 1 1 1 < < < < < < < < > > > & = = @ @ % > C > O i Z B d j e < 7 0 0 1 1 1 < > > > > > 0 0 7 7 1 7 0 g s O ",
"s B C u 7 1 7 1 1 1 1 1 1 7 7 7 7 7 1 < < < > > < & = = = = = > Z & O s H k u ; 1 1 7 0 0 1 1 1 < > > > > > < 0 7 7 7 7 0 f s O ",
"q z G u 7 7 0 1 1 1 1 1 7 0 0 7 7 7 7 < < < > > > & & = = > > < S % O s L k = y > 1 7 0 0 1 1 1 1 < > > > < > 6 0 0 7 7 0 f f . ",
"7 g L u 0 7 0 1 1 1 1 0 0 0 0 0 0 0 0 7 7 < > > = & & = > > < 7 F % O s L k % @ = 0 0 0 0 7 7 1 1 1 < > < < < < 0 q 0 7 0 d g . ",
"< g Q u 0 7 0 7 1 1 0 e e e e u u u 0 0 0 7 7 < > > & & > > 1 7 S % + i W l 7 1 e 0 0 0 0 0 7 7 7 1 < < > < < > < q 0 0 q s g O ",
"* g U 0 7 0 0 0 0 1 1 1 e e e u u u 0 0 0 0 0 7 7 > > > > > < u S % O q B k u 0 0 0 1 1 0 0 0 7 7 7 7 < < < < < > 7 u 0 0 s l O ",
"> g Y q 7 7 7 0 0 1 4 e e e e t u u 0 0 0 0 0 7 0 7 < > > > < u L & O 0 W f t e 1 1 1 1 0 0 0 0 0 0 7 7 < > < < > < 0 q u i l X ",
"< f S s 7 6 7 7 0 e 4 e e e e u u u u u u 0 0 0 u u 1 < > > 6 0 S * O q U f e 7 1 1 1 0 < < 7 0 0 0 7 7 < > < < < < 7 u u s Z X ",
"6 g U s 7 < < 7 7 0 0 e e e e u u u u u u 0 0 0 0 0 7 7 < < 7 0 C < X q U d u 7 1 1 1 0 < < < 0 0 0 0 0 7 < < < < < 7 q i s J X ",
"6 g W d u 7 6 6 7 0 0 0 e e u u u u u u u u 0 0 0 0 7 1 1 1 7 u H q O d W f i 0 7 1 7 e u < < 7 7 0 0 0 7 7 < > > < 7 7 i f H X ",
"7 g ..Z b z g d s s u u u u u u u u i i u u u t 0 0 0 1 7 7 0 i B s O u W b d u 7 1 7 0 i s 0 0 0 0 0 0 0 7 < > > < 7 7 q f H X ",
"0 z +.{ } ~ S z f s s s i u u i s i i i u u t e 0 0 7 7 0 0 u s f f O q Y _ s u 7 0 0 0 e 0 0 7 0 0 0 0 0 7 < < > > 7 0 0 f L X ",
"q z X.W F z s 0 < < 7 0 u u i i i u u u s u e 0 0 0 0 e u i s s f b O q J F q u 0 0 u u u u q q u u u 0 0 0 0 7 < > < 0 7 u ( X ",
"0 B W g u < > > < 6 0 0 q u u u q q q u i u 0 0 0 u u i s d d f g L O 7 F J 7 0 u u u i i u u u u u u u u 0 0 e 7 < < < 7 0 L X ",
"0 F S i > > < 7 0 0 0 q q q q q q u u u u u i s i i s d k n H L ) ` + 6 Z H 0 s u d d i d s i i i u u u u i u q 1 < < 0 q 0 l X ",
"0 Z n 0 < 7 0 0 0 0 0 u 0 q u u s i u u u u i f g f z b b b l x Z ` + 7 Z H 7 q 0 u u i i f d d d d d i u 0 e 0 0 q < 7 0 q z O ",
"q F x 0 0 0 0 0 0 0 w u u u i s i t s s u i i s s s i 0 0 7 7 0 i Q % 7 C k 0 6 < 7 0 t d d d d d d i 0 0 0 0 7 7 7 < < 7 q k O ",
"u J F q 0 0 0 7 7 0 0 0 u u i i u t t i u u u u 0 0 1 1 1 < < 7 u H + > & @ & u 7 7 e i d f f g d i 0 1 7 0 7 7 1 1 < < 7 u g O ",
"u H _ i 0 0 7 7 0 0 0 0 0 u t i e e e u u e e e 0 0 0 0 7 0 7 0 0 = . O 6 n R q > 7 e t p d f f d u u u 7 7 0 0 7 7 7 7 7 u b O ",
"u H { s 0 0 7 1 0 e q u 0 u t e e e e e e e e 0 0 0 0 0 0 0 0 < 0 l > > o...< & = 1 7 e t p p p u 0 u u 0 7 0 0 0 7 0 0 0 0 n O ",
"u F B Z u 7 7 7 7 u u i s t t e e e e u e u e 0 0 0 0 0 0 0 0 u f ] & < ..C % = > , 0 7 0 t t e i u 0 0 7 7 0 0 7 0 u 0 0 0 k O ",
"i F 7 C f u 0 7 7 0 u u u t u e t u u u t i u e e 0 0 0 0 7 < < 7 Z % < ] B & = > < 1 1 7 e t p p t 0 0 7 7 0 0 0 i s i 0 u B O ",
"u H * 6 Z i 0 0 0 0 e u i u e e e e u t t t e e e e 0 0 0 1 1 ; < B @ 6 W Y u 7 < > < 1 1 7 e t p p e 0 7 7 7 0 0 e u e u k L O ",
"u Z & & f g t 0 0 0 0 u t u e e e e e e u t e e e 0 0 1 1 1 < = < B % 6 J G e j t , > , 1 1 e e e e e 0 7 0 0 0 0 0 0 u d H W O ",
"u Z * > 6 x f e 0 0 0 e u e e e e e e e e e e e 0 4 1 1 , 1 < = < Z % 6 J j V c j , > , 1 1 7 e e e e e u e e e u u i d L H Q # ",
"0 Z > < < u l d e e e e e e e e 5 e e e e e e e 1 1 1 , ; , > = q Z % 6 S k 1 u u 1 < 1 e 0 e e e e e e u e e t t p d k p u B # ",
"7 Z & k G 0 i g i e 0 e e e e e e e e e e e 7 1 1 : , , > > > = 1 n % 6 Z l = > @ u 7 1 7 7 e u e e e e t p d t e 0 p e < 1 g # ",
"6 S % c : t 1 s f t e e e e e e e 5 5 e e e 1 : : : , , > > ; = < x % < Z Z 0 > < 7 7 7 7 7 e e e t t i y u e 1 1 e 7 = % > f # ",
"> S % 3 y , 7 e f d e e e 5 3 3 3 3 5 e e 3 1 : : , - > >  .c 1 > x + > Z k u 1 < , 7 0 e e u t t i t e 7 1 1 1 7 e % j c 7 j # ",
"& Z & + @ = < 7 t d i e e 5 3 3 3 3 3 3 3 2 : : : - > , 1 t 5 , = k + * B ..u 7 1 e e u t y p y t e 8 1 1 3 e 1 e 7 > y 1 e f # ",
"$ n < @ % & = > 7 u t u 5 3 3 3 3 3 3 3 2 : : : - - - > = ; 1 @ & k O & C Q t e e t y p p p t e e 1 1 1 : 3 5 1 e 1 @ e t = d O ",
"+ g 7 @ % % % = > 1 e e 5 3 3 3 3 3 3 2 : : - - - > > - = @ @ @ & j X & B W d u t p d f p u e 1 1 : : 1 : : : , e 1 @ + @ = d O ",
"+ g u % % % % % = < 1 1 e 3 3 3 3 3 2 : : : - > - = = % @ @ @ + = l . & l Y p y p f d y u 7 e 5 1 : : : : : : , 7 e = @ & 1 d O ",
"O i k % % & % % = > < 1 7 5 e 5 3 3 3 1 1 : , > = = & % @ + @ + 7 v . % z ) f j k f p y u u u u 3 1 1 1 1 : : 1 7 t 7 > < 7 f X ",
"X u H p i d k i u 0 0 e e e u u t y e e e e 0 7 1 < > > > < < > d V . % g } L H Z C B B Z Z Z v j p p d p t t t u u t e 0 0 f X ",
"+ u B < > 7 7 6 0 d k b Z H L G H H V l j d i u u 0 q 0 0 u i p j c O % g ` f q < & = = & < 1 u f j x B n x k k g f f i p B H O ",
"+ O . . . . . . X           o % = % .       o o .   . . . . . . . O     + o . @ = & 1 & * * > 6 % & & > < < & > < 0 < & & + & % "
};
