/* XPM */
static char *_792bdfa844f45d1cb69425dc94c2bacbIVSVeQtkVLvYAZL[] = {
/* columns rows colors chars-per-pixel */
"64 64 3 1 ",
"  c #555555",
". c #CECECE",
"X c white",
/* pixels */
"                                                                ",
" XXXXXXXXXXXXXXXXXXXXXXXXXXXXXXXXXXXXXXXXXXXXXXXXXXXXXXXXXXXXXX ",
" X............................................................X ",
" X............................................................X ",
" X..                                                        ..X ",
" X.. ...................................................... ..X ",
" X.. ...................................................... ..X ",
" X.. ..XXXXXXXXXXXXXXXXXXXXXXXXXXXXXXXXXXXXXXXXXXXXXXXXXX.. ..X ",
" X.. ..X                                                X.. ..X ",
" X.. ..X .............................................. X.. ..X ",
" X.. ..X .............................................. X.. ..X ",
" X.. ..X .............................................. X.. ..X ",
" X.. ..X .............................................. X.. ..X ",
" X.. ..X .............................................. X.. ..X ",
" X.. ..X ......   .............................   ..... X.. ..X ",
" X.. ..X ..... ... ........................... ... .... X.. ..X ",
" X.. ..X ..... . . ........................... . . .... X.. ..X ",
" X.. ..X ..... ... ........................... ... .... X.. ..X ",
" X.. ..X ......   .............................   ..... X.. ..X ",
" X.. ..X .............................................. X.. ..X ",
" X.. ..X .............................................. X.. ..X ",
" X.. ..X .............................................. X.. ..X ",
" X.. ..X .............................................. X.. ..X ",
" X.. ..X .............................................. X.. ..X ",
" X.. ..X .............................................. X.. ..X ",
" X.. ..X .............................................. X.. ..X ",
" X.. ..X ......................   ..................... X.. ..X ",
" X.. ..X ....................  ...  ................... X.. ..X ",
" X.. ..X .................... ..... ................... X.. ..X ",
" X.. ..X ................... .. . .. .................. X.. ..X ",
" X.. ..X ................... ... ... .................. X.. ..X ",
" X.. ..X ................... .. . .. .................. X.. ..X ",
" X.. ..X .................... ..... ................... X.. ..X ",
" X.. ..X ....................  ...  ................... X.. ..X ",
" X.. ..X ......................   ..................... X.. ..X ",
" X.. ..X .............................................. X.. ..X ",
" X.. ..X .............................................. X.. ..X ",
" X.. ..X .............................................. X.. ..X ",
" X.. ..X .............................................. X.. ..X ",
" X.. ..X .............................................. X.. ..X ",
" X.. ..X .............................................. X.. ..X ",
" X.. ..X .............................................. X.. ..X ",
" X.. ..X .............................................. X.. ..X ",
" X.. ..X .............................................. X.. ..X ",
" X.. ..X .............................................. X.. ..X ",
" X.. ..X .............................................. X.. ..X ",
" X.. ..X .............................................. X.. ..X ",
" X.. ..X .............................................. X.. ..X ",
" X.. ..X .....   ...............................   .... X.. ..X ",
" X.. ..X .... ... ............................. ... ... X.. ..X ",
" X.. ..X .... . . ............................. . . ... X.. ..X ",
" X.. ..X .... ... ............................. ... ... X.. ..X ",
" X.. ..X .....   ...............................   .... X.. ..X ",
" X.. ..X .............................................. X.. ..X ",
" X.. ..X .............................................. X.. ..X ",
" X.. ..X                                                X.. ..X ",
" X.. ..XXXXXXXXXXXXXXXXXXXXXXXXXXXXXXXXXXXXXXXXXXXXXXXXXX.. ..X ",
" X.. ...................................................... ..X ",
" X.. ...................................................... ..X ",
" X..                                                        ..X ",
" X............................................................X ",
" X............................................................X ",
" XXXXXXXXXXXXXXXXXXXXXXXXXXXXXXXXXXXXXXXXXXXXXXXXXXXXXXXXXXXXXX ",
"                                                                "
};
