/* XPM */
static char * collectables_xpm[] = {
"32 32 536 2",
"  	c #FF0000",
". 	c #FBEB26",
"+ 	c #FFEC4D",
"@ 	c #FFED4F",
"# 	c #FFEC52",
"$ 	c #FEED55",
"% 	c #FEED59",
"& 	c #FFF387",
"* 	c #FCFBBB",
"= 	c #F4C400",
"- 	c #F3C100",
"; 	c #E8BD00",
"> 	c #FF2425",
", 	c #FFDF01",
"' 	c #FFE842",
") 	c #FEE844",
"! 	c #FFEA47",
"~ 	c #FEEA49",
"{ 	c #FFEC4F",
"] 	c #FFEC50",
"^ 	c #FFED51",
"/ 	c #FFEE5A",
"( 	c #FFFFBE",
"_ 	c #FFFFD6",
": 	c #F6C403",
"< 	c #EFBE00",
"[ 	c #FFE12B",
"} 	c #FFE339",
"| 	c #FFE43B",
"1 	c #FFE540",
"2 	c #FFE641",
"3 	c #FFE844",
"4 	c #FFEA49",
"5 	c #FFEB4E",
"6 	c #FEED57",
"7 	c #FFEA59",
"8 	c #FFFFF3",
"9 	c #F9C900",
"0 	c #F7C600",
"a 	c #F4C201",
"b 	c #F7E425",
"c 	c #FFE133",
"d 	c #FFE337",
"e 	c #FFE33A",
"f 	c #FEE540",
"g 	c #946F04",
"h 	c #9F7602",
"i 	c #B19702",
"j 	c #FFE948",
"k 	c #FEEA4D",
"l 	c #FFED50",
"m 	c #FEEE53",
"n 	c #FFEB57",
"o 	c #FEFEFF",
"p 	c #F9C801",
"q 	c #F7C701",
"r 	c #F2CB00",
"s 	c #D7B638",
"t 	c #FFDE2D",
"u 	c #FFDF32",
"v 	c #FFE135",
"w 	c #EDD132",
"x 	c #8E6900",
"y 	c #FFF683",
"z 	c #FFF67F",
"A 	c #FFF67D",
"B 	c #977708",
"C 	c #FFE94B",
"D 	c #FDDB97",
"E 	c #F3D400",
"F 	c #FBCD06",
"G 	c #F7C901",
"H 	c #F5C500",
"I 	c #FEDB27",
"J 	c #FFDD29",
"K 	c #FEDD2C",
"L 	c #6A4C03",
"M 	c #877813",
"N 	c #FDF77F",
"O 	c #FEE447",
"P 	c #FFEB50",
"Q 	c #FDFFFE",
"R 	c #FFD221",
"S 	c #FCCF10",
"T 	c #F7CB08",
"U 	c #F5C700",
"V 	c #FFD920",
"W 	c #FEDA22",
"X 	c #FFDB25",
"Y 	c #775704",
"Z 	c #ECD671",
"` 	c #FFF474",
" .	c #FFF478",
"..	c #FFF47A",
"+.	c #FEF57C",
"@.	c #FFF579",
"#.	c #FFF77B",
"$.	c #FFF57F",
"%.	c #FFE84A",
"&.	c #FFE94F",
"*.	c #F9F1EF",
"=.	c #FDD224",
"-.	c #F9CD16",
";.	c #F5C908",
">.	c #D6B43E",
",.	c #FFD81E",
"'.	c #FBDD1D",
").	c #6B4700",
"!.	c #FFEB58",
"~.	c #FFEF5C",
"{.	c #FFF065",
"].	c #FEE445",
"^.	c #664500",
"/.	c #DBC232",
"(.	c #FEEA31",
"_.	c #FCF87D",
":.	c #FFF480",
"<.	c #FFF782",
"[.	c #FFE846",
"}.	c #FFE94D",
"|.	c #FFF9E6",
"1.	c #FDD43A",
"2.	c #F9D22F",
"3.	c #F6CD25",
"4.	c #F3C913",
"5.	c #FFCB20",
"6.	c #FFD71D",
"7.	c #9B7304",
"8.	c #FFE431",
"9.	c #FEE33C",
"0.	c #FEE644",
"a.	c #FFE94E",
"b.	c #FFF27F",
"c.	c #E6B500",
"d.	c #FFEA3F",
"e.	c #FFEB40",
"f.	c #FBF883",
"g.	c #FEF47B",
"h.	c #FFF57C",
"i.	c #FFF47E",
"j.	c #A07300",
"k.	c #FFE747",
"l.	c #FFE84D",
"m.	c #FFDE4D",
"n.	c #FAD139",
"o.	c #F5CB27",
"p.	c #F2C719",
"q.	c #FED517",
"r.	c #FED71A",
"s.	c #FFD624",
"t.	c #795500",
"u.	c #FEDF2C",
"v.	c #FFE234",
"w.	c #FFF17A",
"x.	c #E3B200",
"y.	c #FFEB3C",
"z.	c #FEEC40",
"A.	c #FFEF6F",
"B.	c #FFF270",
"C.	c #FEF375",
"D.	c #FEF479",
"E.	c #FEE542",
"F.	c #FFE848",
"G.	c #FFF7BE",
"H.	c #F6CE38",
"I.	c #F4CA2A",
"J.	c #EEC617",
"K.	c #F1BB1A",
"L.	c #FFD81B",
"M.	c #B88E00",
"N.	c #FFDB19",
"O.	c #FFDB23",
"P.	c #FFDF2A",
"Q.	c #FFE131",
"R.	c #FFEE7E",
"S.	c #DEAF00",
"T.	c #FFEC3A",
"U.	c #FFEB3E",
"V.	c #FFEE62",
"W.	c #FFF067",
"X.	c #FFF16E",
"Y.	c #FFF272",
"Z.	c #FEF373",
"`.	c #FFE047",
" +	c #FDE441",
".+	c #FFE644",
"++	c #FFF5AD",
"@+	c #F3CE35",
"#+	c #F0C82B",
"$+	c #EBC21A",
"%+	c #E7BD06",
"&+	c #FFD823",
"*+	c #865F00",
"=+	c #FFD819",
"-+	c #FEDE2B",
";+	c #FCF17E",
">+	c #DEAF01",
",+	c #FFEA35",
"'+	c #FFEB38",
")+	c #FDEE57",
"!+	c #FFF063",
"~+	c #FFF069",
"{+	c #FFF16C",
"]+	c #FAF06D",
"^+	c #FFE43F",
"/+	c #FEE737",
"(+	c #EBC11D",
"_+	c #E3BA08",
":+	c #DFB500",
"<+	c #DBB001",
"[+	c #FEDD16",
"}+	c #FFDA27",
"|+	c #FDD921",
"1+	c #A27B00",
"2+	c #FFD91E",
"3+	c #FFD820",
"4+	c #FEDB21",
"5+	c #FEDA24",
"6+	c #FFF280",
"7+	c #FFE931",
"8+	c #FDEA4E",
"9+	c #FFEA51",
"0+	c #FFED5A",
"a+	c #FDF063",
"b+	c #FFF168",
"c+	c #FEE33E",
"d+	c #FFE344",
"e+	c #FFF375",
"f+	c #DCB405",
"g+	c #D5AD00",
"h+	c #D0A500",
"i+	c #BFA101",
"j+	c #F6D935",
"k+	c #FFDA2A",
"l+	c #FFDD10",
"m+	c #FFDB28",
"n+	c #FFDD26",
"o+	c #FFDE27",
"p+	c #FFED71",
"q+	c #FEE830",
"r+	c #FFEC30",
"s+	c #FDE642",
"t+	c #FFE749",
"u+	c #FEE950",
"v+	c #FEEA55",
"w+	c #FEEE5A",
"x+	c #FEEE5B",
"y+	c #FFEF5E",
"z+	c #FFE038",
"A+	c #FFE23C",
"B+	c #FFED6F",
"C+	c #D0A700",
"D+	c #CCA200",
"E+	c #C59F00",
"F+	c #BE9D02",
"G+	c #FFD926",
"H+	c #FED929",
"I+	c #FFD716",
"J+	c #FFD715",
"K+	c #FFD821",
"L+	c #FFDE2F",
"M+	c #FFDF36",
"N+	c #FEEF62",
"O+	c #DCAD00",
"P+	c #FEE92E",
"Q+	c #FFE92B",
"R+	c #FFE139",
"S+	c #FFE445",
"T+	c #FFE74C",
"U+	c #FFEA53",
"V+	c #FFE955",
"W+	c #FFE43A",
"X+	c #FEE239",
"Y+	c #FFDF40",
"Z+	c #C19802",
"`+	c #BC9200",
" @	c #B48F00",
".@	c #FFE63B",
"+@	c #FFD610",
"@@	c #FFD618",
"#@	c #FFD61A",
"$@	c #FED81D",
"%@	c #D9AB00",
"&@	c #FFE72B",
"*@	c #FFE443",
"=@	c #FFE546",
"-@	c #FFE74D",
";@	c #FFE74F",
">@	c #FFE437",
",@	c #FFE138",
"'@	c #F4C805",
")@	c #A78001",
"!@	c #A68003",
"~@	c #A27C01",
"{@	c #A17303",
"]@	c #FFD215",
"^@	c #FFD318",
"/@	c #FFF064",
"(@	c #FFD713",
"_@	c #FCCE06",
":@	c #FDCF07",
"<@	c #FED20F",
"[@	c #FFD515",
"}@	c #FDE545",
"|@	c #D4A801",
"1@	c #FFE629",
"2@	c #FFE548",
"3@	c #FFE54A",
"4@	c #FFDB2B",
"5@	c #E7B601",
"6@	c #826000",
"7@	c #7F5E00",
"8@	c #7E5D00",
"9@	c #7E5B01",
"0@	c #FDCF08",
"a@	c #FFD00E",
"b@	c #FDF27C",
"c@	c #FDD818",
"d@	c #F6C800",
"e@	c #FACB00",
"f@	c #FFD413",
"g@	c #FDE239",
"h@	c #CEA201",
"i@	c #FFE428",
"j@	c #FFE52C",
"k@	c #FFE13B",
"l@	c #FFE342",
"m@	c #FFE137",
"n@	c #CFA200",
"o@	c #5E4300",
"p@	c #5D4100",
"q@	c #5C4001",
"r@	c #5C4100",
"s@	c #FECF00",
"t@	c #FFF490",
"u@	c #FFD113",
"v@	c #F3C301",
"w@	c #F3C300",
"x@	c #F4C600",
"y@	c #F7C800",
"z@	c #FACD02",
"A@	c #FDDD30",
"B@	c #CDA100",
"C@	c #FFE327",
"D@	c #FFE526",
"E@	c #FDDF31",
"F@	c #FFDF3C",
"G@	c #FFE03D",
"H@	c #FFE33F",
"I@	c #B99000",
"J@	c #5B4000",
"K@	c #5D4200",
"L@	c #5B4200",
"M@	c #FBC701",
"N@	c #F0D806",
"O@	c #EEBD01",
"P@	c #F0BF01",
"Q@	c #F2C200",
"R@	c #F3C500",
"S@	c #FFD620",
"T@	c #CDA102",
"U@	c #FFE425",
"V@	c #FFD311",
"W@	c #FEDC32",
"X@	c #FFE240",
"Y@	c #FEE13B",
"Z@	c #FFE23E",
"`@	c #A57E00",
" #	c #422901",
".#	c #432A01",
"+#	c #442C00",
"@#	c #442900",
"##	c #FF3533",
"$#	c #F7C902",
"%#	c #E8B600",
"&#	c #E9B700",
"*#	c #ECBB00",
"=#	c #F0BF00",
"-#	c #F1C100",
";#	c #FED114",
">#	c #FFE121",
",#	c #F9CE06",
"'#	c #FECF0D",
")#	c #FFD213",
"!#	c #FED61E",
"~#	c #FED928",
"{#	c #FFDF3A",
"]#	c #FFDE37",
"^#	c #3E2500",
"/#	c #361F00",
"(#	c #351E00",
"_#	c #F5CB00",
":#	c #FDFCBC",
"<#	c #E5B400",
"[#	c #E4B301",
"}#	c #E6B300",
"|#	c #EABA00",
"1#	c #FDCF0A",
"2#	c #FEE020",
"3#	c #FEDF22",
"4#	c #F8C901",
"5#	c #F8CA02",
"6#	c #FACC05",
"7#	c #FBCF0C",
"8#	c #FED112",
"9#	c #FFD51E",
"0#	c #FFD91C",
"a#	c #FEDD30",
"b#	c #FFDF34",
"c#	c #FDDD34",
"d#	c #563B03",
"e#	c #543902",
"f#	c #4E3401",
"g#	c #483100",
"h#	c #F6C801",
"i#	c #F7FDCF",
"j#	c #EECA1E",
"k#	c #E1AD01",
"l#	c #E0AE01",
"m#	c #E1B000",
"n#	c #F8CA05",
"o#	c #CB9F02",
"p#	c #FFDF20",
"q#	c #F5C503",
"r#	c #FDD011",
"s#	c #FFD924",
"t#	c #FFDC2A",
"u#	c #715003",
"v#	c #654700",
"w#	c #654701",
"x#	c #644701",
"y#	c #F1C300",
"z#	c #FFFAD0",
"A#	c #DEAA00",
"B#	c #DEAB02",
"C#	c #DFAA02",
"D#	c #F4C505",
"E#	c #C79A00",
"F#	c #FFDF1E",
"G#	c #F2C400",
"H#	c #F9CB04",
"I#	c #FCCE09",
"J#	c #FFD416",
"K#	c #644300",
"L#	c #604500",
"M#	c #614400",
"N#	c #674200",
"O#	c #F5C501",
"P#	c #FFFAD3",
"Q#	c #F9E14D",
"R#	c #DCA701",
"S#	c #DBA600",
"T#	c #FDDD32",
"U#	c #E6BC06",
"V#	c #FEE125",
"W#	c #FEE529",
"X#	c #EDBB00",
"Y#	c #ECBC00",
"Z#	c #FFD10F",
"`#	c #FFD312",
" $	c #F7D007",
".$	c #674900",
"+$	c #684A01",
"@$	c #6A4D01",
"#$	c #6B4E00",
"$$	c #FEFCD6",
"%$	c #F5C815",
"&$	c #D9A400",
"*$	c #C8A115",
"=$	c #F8F290",
"-$	c #FFED87",
";$	c #FCF37E",
">$	c #E3B102",
",$	c #E8B800",
"'$	c #EBBB00",
")$	c #FFE400",
"!$	c #FED00B",
"~$	c #FDD110",
"{$	c #452A00",
"]$	c #6E4D00",
"^$	c #704F00",
"/$	c #735300",
"($	c #795602",
"_$	c #F1C502",
":$	c #FEF9CF",
"<$	c #F6C813",
"[$	c #D8A201",
"}$	c #D8A400",
"|$	c #DDA800",
"1$	c #DDA900",
"2$	c #E0AC00",
"3$	c #F0CB01",
"4$	c #FCCE07",
"5$	c #F8D20F",
"6$	c #715404",
"7$	c #725100",
"8$	c #765601",
"9$	c #FDF5C4",
"0$	c #FFD613",
"a$	c #D9A302",
"b$	c #D9A501",
"c$	c #DFB000",
"d$	c #FFEB2B",
"e$	c #301D00",
"f$	c #755500",
"g$	c #785400",
"h$	c #F3C203",
"i$	c #EEC509",
"j$	c #E3C320",
"k$	c #FEF29C",
"l$	c #EDBA00",
"m$	c #ECBD0D",
"n$	c #FDEC5E",
"o$	c #F6CC00",
"p$	c #F9CB03",
"q$	c #261E00",
"r$	c #775700",
"s$	c #F5C405",
"t$	c #F8C400",
"u$	c #341A0D",
"v$	c #775400",
"w$	c #745401",
"x$	c #745502",
"y$	c #F4C601",
"z$	c #392202",
"A$	c #7C5A00",
"B$	c #7F5C00",
"C$	c #825E00",
"D$	c #845800",
"E$	c #A48500",
"F$	c #F3C003",
"G$	c #EDCB00",
"H$	c #4C3406",
"I$	c #957200",
"J$	c #9A7700",
"K$	c #9E7809",
"                    . + @ # $ % & * = - ; >                     ",
"                , ' ) ! ~ { ] ^ $ / ( _ : - <                   ",
"              [ } | 1 2 3 4 5 { ] ^ 6 7 8 9 0 a                 ",
"            b c d e | f g h i j k ] l m n o p q r               ",
"          s t u v w x y z z z A B C k ] ] D E F G H             ",
"          I J K L M A A z z z z z N O k k P Q R S T U           ",
"        V W X Y Z `  ...+.@.#.$.z z $.%.C k &.*.=.-.;.>.        ",
"        ,.V '.).!.~.{.].^./.(._.:.$.z <.[.%.}.|.1.2.3.4.        ",
"      5.6.6.7.8.9.0.a.b.c.d.e.f.g.h.h.i.j.k.%.l.m.n.o.p.        ",
"      q.r.s.t.X u.v.| w.x.y.z.A.B.C. .D.g.E.0.F.G.H.I.J.K.      ",
"      L.L.M.N.6.O.P.Q.R.S.T.U.V.W.X.Y.Z.C.`. +.+++@+#+$+%+      ",
"      &+&+*+=+L.V O.-+;+>+,+'+)+~.!+~+{+X.]+^+^+/+(+_+:+<+      ",
"    [+}+|+1+,.2+3+4+5+6+>+7+,+8+9+0+~.a+{.b+e c+d+e+f+g+h+i+    ",
"    j+k+H l+X }+m+n+o+p+>+q+r+s+t+u+v+w+x+y+z+A+d B+C+D+E+F+    ",
"    G+H+I+J+V K+X L+M+N+O+P+Q+R+^+S+T+9+U+V+W+X+e Y+E+Z+`+ @    ",
"    K+&+.@+@@@#@$@X L+] %@&@Q+*@=@*@=@-@-@;@>@,@,@'@)@!@~@{@    ",
"    ]@^@/@(@_@:@<@[@V }@|@1@&@*@2@=@S+S+O 3@4@e e 5@6@7@8@9@    ",
"    0@a@b@c@d@d@e@_@f@g@h@i@j@k@l@*@S+].].].m@^+A+n@o@p@q@r@    ",
"    s@F t@u@v@w@x@y@z@A@B@C@D@E@M+F@G@*@].]. +^+H@I@J@K@L@o@    ",
"    M@G N@.+O@P@Q@R@U S@T@U@U@V@3+k+W@z+G@X@Y@Z@H@`@ #.#+#@#    ",
"    ##G $#Y.%#&#*#=#-#;#T@>#>#,#'#)#!#~#W@{#]#z+Y@^#/#/#(#      ",
"      d@_#:#<#[#}#5@|#1#T@2#3#4#5#6#7#8#9#0#a#b#c#d#e#f#g#      ",
"      U h#i#j#k#l#m#[#n#o#p#p#q#U h#6#1#r#K+s#t#u#v#w#x#w#      ",
"      y#U h#z#A#A#B#C#D#E#F#p#Q@Q@G#d@H#I#J#=+V K#L#M#M#N#      ",
"        O#x@P#Q#R#R#S#T#U#V#W#X#Y#-#R@h#Z#`#]@ $.$+$@$#$        ",
"        w@= O#$$%$&$&$*$=$-$;$>$,$'$=#)$!$'#~${$]$^$/$($        ",
"          w@= _$:$<$&$[$}$|$1$2$[#,$3$4$0@!$5$6$7$/$8$          ",
"          y#w@w@= 9$0$a$&$b$R#C#c$d$6#F F 4$e$f$f$f$g$          ",
"            h$w@w@i$j$k$y+l$m$n$o$G p$H#6#q$r$8$f$8$            ",
"              Q@w@w@w@= s$t$U d@d@G G G u$v$w$w$x$              ",
"                G#v@w@w@w@= y$x@h#d@d@z$A$B$C$D$                ",
"                  E$F$v@w@w@= O#y$G$H$I$J$K$                    "};
