/* XPM */
static char *floor_xpm[] = {
/* width height num_colors chars_per_pixel */
"32 32 2 1",
/* colors */
"  c #D2B48C", /* Tan color for floor */
". c #C19A6B", /* Lighter tan for pattern */
/* pixels */
"                                ",
" ...............................",
" ...............................",
" ...............................",
" ...............................",
" ...............................",
" ...............................",
" ...............................",
" ...............................",
" ...............................",
" ...............................",
" ...............................",
" ...............................",
" ...............................",
" ...............................",
" ...............................",
" ...............................",
" ...............................",
" ...............................",
" ...............................",
" ...............................",
" ...............................",
" ...............................",
" ...............................",
" ...............................",
" ...............................",
" ...............................",
" ...............................",
" ...............................",
" ...............................",
" ...............................",
"                                "
};