/* XPM */
static char *player_xpm[] = {
/* width height num_colors chars_per_pixel */
"32 32 6 1",
/* colors */
". c #000000", /* Black outline */
"X c #1E90FF", /* Dodger blue for clothing */
"o c #FFD700", /* Gold for features */
"+ c #FFC0CB", /* Pink for skin */
"@ c #FF0000", /* Red for hat */
"  c None",    /* Transparent */
/* pixels */
"                                ",
"                                ",
"           ..........           ",
"          .@@@@@@@@@@.          ",
"         .@@@@@@@@@@@@.         ",
"         .@@@@@@@@@@@@.         ",
"         .@@@@@@@@@@@@.         ",
"         .@@@@@@@@@@@@.         ",
"         .@@@@@@@@@@@@.         ",
"         ..+++++++++...         ",
"          .+++++++++++.         ",
"         .++++..+..+++.         ",
"         .+++.+o.+o.++.         ",
"         .+++.+o.+o.++.         ",
"         .++++......++.         ",
"         .+++++++++++++.        ",
"         .+++++++++++++.        ",
"          .+++++++++++.         ",
"          ..XXXXXXXXX..         ",
"         .XXXXXXXXXXXXX.        ",
"        .XXXXXXXXXXXXXXX.       ",
"        .XXXXXXXXXXXXXXX.       ",
"        .XXXXXXXXXXXXXXX.       ",
"        .XXXXXXXXXXXXXXX.       ",
"        .XXX..XXXXX..XXX.       ",
"        .XX.  .XXX.  .XX.       ",
"        ...    ...    ...       ",
"                                ",
"                                ",
"                                ",
"                                ",
"                                "
};