/* XPM */
static char * player_xpm[] = {
"32 32 22 1",
" 	c None",
".	c #FF0000",
"+	c #490000",
"@	c #CDB9B9",
"#	c #FFFFFF",
"$	c #FFEE45",
"%	c #FFE900",
"&	c #4E0000",
"*	c #FFE700",
"=	c #FFE800",
"-	c #FFFA00",
";	c #FFBC00",
">	c #F9B000",
",	c #FFED00",
"'	c #FABF00",
")	c #782F00",
"!	c #F8AB00",
"~	c #480000",
"{	c #7A3F00",
"]	c #FEE600",
"^	c #F2A900",
"/	c #3F0000",
"................................",
"...........++++++++.............",
".........++@#######+++..........",
".......++##$%%%%%%%%%%++........",
"......&##**=%%%%%%%%%%--&&......",
"......+##%%%%%%%%%%%%%%%++......",
"....&+#%%%%%%%%%%%%%%%%%%%++....",
"...+;>%%%%%%%%%%%%%%%%%%%%%+....",
"...+;>%%%%%%%%%%%%%%%%%%%>+ ....",
"..+>,%%%%%%%%%%%%%%%%%%%>+......",
"..+>,%%%%%%%%%%%%%%%%%>>+...++..",
"..+>,%%%%%%%%%%%%%%%%')) ..+%%+.",
".+>%%%%%%%%%%%%%%%%%%>++...+!!+.",
".+>%%%%%%%%%~~%%%%%%>+......++..",
".+>%%%%%%%%{+++%%%]>+...........",
".+>%%%%%%%%{+++%%>^+............",
".+>%%%%%%%%'++>%%>^+....+++.....",
".+>%%%%%%%%%>>%%>++....+%%%+....",
".+>]%%%%%%%%%%%%%>^+...+>>>+....",
".+>>,%%%%%%%%%%%%>>>+.. ))) ....",
"..+>,%%%%%%%%%%%%%]>;&..+++.....",
"..+>,%%%%%%%%%%%%%%%>+..........",
"..+>>>%%%%%%%%%%%%%%%>++........",
"...+;>>%%%%%%%%%%%%%%>>>+.......",
"...+;>>%%%%%%%%%%%%%%%>>>+......",
"....&+>>>%%%%%%%%%%%%%%%>/+.....",
"......+>>>>%%%%%%%%%%>>>>++.....",
"...... ))>>''''''''''>>)) ......",
".......++>>>>>>>>>>>>>>++.......",
".........+++>>>>>>>>>++.........",
"............+++++++++...........",
"................................"};
